<svg width="24" height="24" viewBox="0 0 24 24" fill="none" xmlns="http://www.w3.org/2000/svg">
<path d="M15.7105 12.7077C16.6909 11.9363 17.4065 10.8786 17.7577 9.68163C18.109 8.48465 18.0784 7.20795 17.6703 6.02915C17.2621 4.85035 16.4967 3.82808 15.4806 3.10454C14.4644 2.381 13.2479 1.99219 12.0005 1.99219C10.753 1.99219 9.5366 2.381 8.52041 3.10454C7.50423 3.82808 6.73883 4.85035 6.3307 6.02915C5.92257 7.20795 5.892 8.48465 6.24325 9.68163C6.59449 10.8786 7.31009 11.9363 8.29048 12.7077C6.61056 13.3807 5.14477 14.497 4.04938 15.9376C2.95398 17.3782 2.27005 19.089 2.07048 20.8877C2.05604 21.019 2.0676 21.1519 2.10451 21.2787C2.14142 21.4056 2.20295 21.5239 2.2856 21.627C2.4525 21.8352 2.69527 21.9685 2.96049 21.9977C3.2257 22.0269 3.49164 21.9495 3.69981 21.7826C3.90798 21.6157 4.04131 21.3729 4.07049 21.1077C4.29007 19.1529 5.22217 17.3475 6.6887 16.0365C8.15524 14.7255 10.0534 14.0007 12.0205 14.0007C13.9876 14.0007 15.8857 14.7255 17.3523 16.0365C18.8188 17.3475 19.7509 19.1529 19.9705 21.1077C19.9977 21.3534 20.1149 21.5803 20.2996 21.7447C20.4843 21.9091 20.7233 21.9992 20.9705 21.9977H21.0805C21.3426 21.9675 21.5822 21.835 21.747 21.6289C21.9119 21.4229 21.9886 21.16 21.9605 20.8977C21.76 19.0939 21.0724 17.3787 19.9713 15.9359C18.8703 14.4931 17.3974 13.3772 15.7105 12.7077ZM12.0005 11.9977C11.2094 11.9977 10.436 11.7631 9.7782 11.3236C9.12041 10.884 8.60772 10.2593 8.30497 9.52842C8.00222 8.79751 7.923 7.99325 8.07734 7.21732C8.23168 6.4414 8.61265 5.72867 9.17206 5.16926C9.73147 4.60985 10.4442 4.22888 11.2201 4.07454C11.996 3.9202 12.8003 3.99941 13.5312 4.30217C14.2621 4.60492 14.8868 5.11761 15.3264 5.7754C15.7659 6.4332 16.0005 7.20656 16.0005 7.99768C16.0005 9.05855 15.5791 10.076 14.8289 10.8261C14.0788 11.5763 13.0614 11.9977 12.0005 11.9977Z" fill="white"/>
</svg>
