<svg width="44" height="44" viewBox="0 0 44 44" fill="none" xmlns="http://www.w3.org/2000/svg">
<rect width="44" height="44" rx="22" fill="#2E2F4B"/>
<path d="M25.7105 22.7077C26.6909 21.9363 27.4065 20.8786 27.7577 19.6816C28.109 18.4846 28.0784 17.2079 27.6703 16.0292C27.2621 14.8504 26.4967 13.8281 25.4806 13.1045C24.4644 12.381 23.2479 11.9922 22.0005 11.9922C20.753 11.9922 19.5366 12.381 18.5204 13.1045C17.5042 13.8281 16.7388 14.8504 16.3307 16.0292C15.9226 17.2079 15.892 18.4846 16.2432 19.6816C16.5945 20.8786 17.3101 21.9363 18.2905 22.7077C16.6106 23.3807 15.1448 24.497 14.0494 25.9376C12.954 27.3782 12.27 29.089 12.0705 30.8877C12.056 31.019 12.0676 31.1519 12.1045 31.2787C12.1414 31.4056 12.203 31.5239 12.2856 31.627C12.4525 31.8352 12.6953 31.9685 12.9605 31.9977C13.2257 32.0269 13.4916 31.9495 13.6998 31.7826C13.908 31.6157 14.0413 31.3729 14.0705 31.1077C14.2901 29.1529 15.2222 27.3475 16.6887 26.0365C18.1552 24.7255 20.0534 24.0007 22.0205 24.0007C23.9876 24.0007 25.8857 24.7255 27.3523 26.0365C28.8188 27.3475 29.7509 29.1529 29.9705 31.1077C29.9977 31.3534 30.1149 31.5803 30.2996 31.7447C30.4843 31.9091 30.7233 31.9992 30.9705 31.9977H31.0805C31.3426 31.9675 31.5822 31.835 31.747 31.6289C31.9119 31.4229 31.9886 31.16 31.9605 30.8977C31.76 29.0939 31.0724 27.3787 29.9713 25.9359C28.8703 24.4931 27.3974 23.3772 25.7105 22.7077ZM22.0005 21.9977C21.2094 21.9977 20.436 21.7631 19.7782 21.3236C19.1204 20.884 18.6077 20.2593 18.305 19.5284C18.0022 18.7975 17.923 17.9932 18.0773 17.2173C18.2317 16.4414 18.6126 15.7287 19.1721 15.1693C19.7315 14.6098 20.4442 14.2289 21.2201 14.0745C21.996 13.9202 22.8003 13.9994 23.5312 14.3022C24.2621 14.6049 24.8868 15.1176 25.3264 15.7754C25.7659 16.4332 26.0005 17.2066 26.0005 17.9977C26.0005 19.0585 25.5791 20.076 24.8289 20.8261C24.0788 21.5763 23.0614 21.9977 22.0005 21.9977Z" fill="white"/>
</svg>
