<svg width="21" height="27" viewBox="0 0 21 27" fill="none" xmlns="http://www.w3.org/2000/svg">
<path d="M20.3505 10.9157C20.7593 8.14624 18.6624 6.65599 15.8006 5.66688L16.7238 1.90826L14.4686 1.34117L13.5586 4.99428C12.9535 4.84288 12.3468 4.6978 11.7387 4.55908L12.6618 0.879589L10.3803 0.3125L9.45713 4.07111L8.00644 3.72822V3.71504L4.88086 2.92375L4.2742 5.36355C4.2742 5.36355 5.96228 5.75919 5.92272 5.77238C6.84589 6.00977 7.00414 6.61642 6.97777 7.10438L5.92272 11.3905C5.98866 11.3905 6.06779 11.4301 6.1601 11.4565L5.92272 11.4037L4.43246 17.3911C4.32695 17.6681 4.03682 18.0901 3.40379 17.9318C3.41698 17.9714 1.75527 17.523 1.75527 17.523L0.621094 20.1342L3.57523 20.8728L5.18418 21.2948L4.26101 25.093L6.51618 25.6601L7.43935 21.9015L9.25931 22.3762L8.33614 26.1216L10.5913 26.6887L11.5409 22.8906C15.405 23.6291 18.3195 23.339 19.546 19.8177C20.522 16.9691 19.4933 15.3338 17.4491 14.2787C18.9394 13.9226 20.0472 12.9467 20.3505 10.9157ZM15.1676 18.2352C14.4686 21.0706 9.72089 19.554 8.17789 19.1583L9.43076 14.1205C10.9738 14.5161 15.8929 15.281 15.1676 18.2352ZM15.8666 10.8762C15.2335 13.4611 11.2771 12.1422 9.99785 11.8257L11.132 7.26264C12.4113 7.57915 16.5392 8.1858 15.8797 10.8762H15.8666Z" fill="white"/>
</svg>
