<svg width="24" height="24" viewBox="0 0 24 24" fill="none" xmlns="http://www.w3.org/2000/svg">
<path d="M15.7098 8.29179C15.6169 8.19806 15.5063 8.12367 15.3844 8.0729C15.2626 8.02213 15.1318 7.99599 14.9998 7.99599C14.8678 7.99599 14.7371 8.02213 14.6153 8.0729C14.4934 8.12367 14.3828 8.19806 14.2898 8.29179L11.9998 10.5918L9.70984 8.29179C9.52153 8.10348 9.26614 7.9977 8.99984 7.9977C8.73353 7.9977 8.47814 8.10348 8.28983 8.29179C8.10153 8.48009 7.99574 8.73549 7.99574 9.00179C7.99574 9.26809 8.10153 9.52348 8.28983 9.71179L10.5898 12.0018L8.28983 14.2918C8.19611 14.3848 8.12171 14.4954 8.07094 14.6172C8.02017 14.7391 7.99404 14.8698 7.99404 15.0018C7.99404 15.1338 8.02017 15.2645 8.07094 15.3864C8.12171 15.5082 8.19611 15.6188 8.28983 15.7118C8.3828 15.8055 8.4934 15.8799 8.61526 15.9307C8.73712 15.9814 8.86782 16.0076 8.99984 16.0076C9.13185 16.0076 9.26255 15.9814 9.38441 15.9307C9.50627 15.8799 9.61687 15.8055 9.70984 15.7118L11.9998 13.4118L14.2898 15.7118C14.3828 15.8055 14.4934 15.8799 14.6153 15.9307C14.7371 15.9814 14.8678 16.0076 14.9998 16.0076C15.1318 16.0076 15.2626 15.9814 15.3844 15.9307C15.5063 15.8799 15.6169 15.8055 15.7098 15.7118C15.8036 15.6188 15.878 15.5082 15.9287 15.3864C15.9795 15.2645 16.0056 15.1338 16.0056 15.0018C16.0056 14.8698 15.9795 14.7391 15.9287 14.6172C15.878 14.4954 15.8036 14.3848 15.7098 14.2918L13.4098 12.0018L15.7098 9.71179C15.8036 9.61882 15.878 9.50822 15.9287 9.38636C15.9795 9.26451 16.0056 9.1338 16.0056 9.00179C16.0056 8.86978 15.9795 8.73907 15.9287 8.61721C15.878 8.49535 15.8036 8.38475 15.7098 8.29179ZM19.0698 4.93179C18.1474 3.97669 17.0439 3.21486 15.8239 2.69077C14.6038 2.16668 13.2916 1.89082 11.9638 1.87928C10.6361 1.86775 9.31926 2.12076 8.09029 2.62357C6.86133 3.12638 5.74481 3.86891 4.80589 4.80784C3.86696 5.74677 3.12443 6.86328 2.62162 8.09225C2.11881 9.32121 1.86579 10.638 1.87733 11.9658C1.88887 13.2936 2.16473 14.6058 2.68882 15.8258C3.21291 17.0459 3.97473 18.1493 4.92984 19.0718C5.8523 20.0269 6.95575 20.7887 8.17579 21.3128C9.39583 21.8369 10.708 22.1128 12.0358 22.1243C13.3636 22.1358 14.6804 21.8828 15.9094 21.38C17.1383 20.8772 18.2549 20.1347 19.1938 19.1957C20.1327 18.2568 20.8752 17.1403 21.3781 15.9113C21.8809 14.6824 22.1339 13.3656 22.1223 12.0378C22.1108 10.71 21.8349 9.39778 21.3109 8.17774C20.7868 6.9577 20.0249 5.85426 19.0698 4.93179ZM17.6598 17.6618C16.3519 18.9712 14.6304 19.7866 12.7886 19.9691C10.9469 20.1516 9.09884 19.6898 7.55936 18.6626C6.01987 17.6353 4.88419 16.106 4.34581 14.3353C3.80742 12.5645 3.89964 10.6619 4.60675 8.95157C5.31386 7.24122 6.59211 5.82894 8.22373 4.95535C9.85534 4.08176 11.7394 3.80092 13.5548 4.16066C15.3703 4.5204 17.0049 5.49848 18.1801 6.92825C19.3553 8.35802 19.9984 10.151 19.9998 12.0018C20.0034 13.0531 19.7984 14.0946 19.3968 15.0662C18.9951 16.0377 18.4047 16.9199 17.6598 17.6618Z" fill="white"/>
</svg>
