<svg width="20" height="20" viewBox="0 0 20 20" fill="none" xmlns="http://www.w3.org/2000/svg">
<path d="M14.9998 8.33414C14.9998 8.11313 14.912 7.90116 14.7557 7.74488C14.5994 7.5886 14.3875 7.50081 14.1665 7.50081H4.50812L6.42479 5.59247C6.58171 5.43555 6.66987 5.22272 6.66987 5.00081C6.66987 4.77889 6.58171 4.56606 6.42479 4.40914C6.26787 4.25222 6.05504 4.16406 5.83312 4.16406C5.61121 4.16406 5.39838 4.25222 5.24146 4.40914L1.90812 7.74247C1.79249 7.85966 1.71416 8.00847 1.68302 8.17013C1.65187 8.33179 1.66931 8.49905 1.73312 8.65081C1.79564 8.80299 1.90181 8.93326 2.03824 9.02521C2.17467 9.11715 2.33527 9.16665 2.49979 9.16747H14.1665C14.3875 9.16747 14.5994 9.07968 14.7557 8.92339C14.912 8.76711 14.9998 8.55515 14.9998 8.33414ZM18.2665 11.3508C18.2039 11.1986 18.0978 11.0684 17.9613 10.9764C17.8249 10.8845 17.6643 10.835 17.4998 10.8341H5.83312C5.61211 10.8341 5.40015 10.9219 5.24387 11.0782C5.08759 11.2345 4.99979 11.4465 4.99979 11.6675C4.99979 11.8885 5.08759 12.1004 5.24387 12.2567C5.40015 12.413 5.61211 12.5008 5.83312 12.5008H15.4915L13.5748 14.4091C13.4967 14.4866 13.4347 14.5788 13.3924 14.6803C13.3501 14.7819 13.3283 14.8908 13.3283 15.0008C13.3283 15.1108 13.3501 15.2197 13.3924 15.3213C13.4347 15.4228 13.4967 15.515 13.5748 15.5925C13.6523 15.6706 13.7444 15.7326 13.846 15.7749C13.9475 15.8172 14.0564 15.839 14.1665 15.839C14.2765 15.839 14.3854 15.8172 14.4869 15.7749C14.5885 15.7326 14.6807 15.6706 14.7581 15.5925L18.0915 12.2591C18.2071 12.142 18.2854 11.9931 18.3166 11.8315C18.3477 11.6698 18.3303 11.5026 18.2665 11.3508Z" fill="#2B7FFF"/>
</svg>
