<svg width="40" height="40" viewBox="0 0 40 40" fill="none" xmlns="http://www.w3.org/2000/svg">
<path d="M20.0008 26.6665C19.6711 26.6665 19.3489 26.7642 19.0748 26.9474C18.8007 27.1305 18.5871 27.3908 18.461 27.6953C18.3348 27.9999 18.3018 28.335 18.3661 28.6583C18.4304 28.9816 18.5892 29.2786 18.8222 29.5116C19.0553 29.7447 19.3523 29.9035 19.6756 29.9678C19.9989 30.0321 20.334 29.9991 20.6386 29.8729C20.9431 29.7468 21.2034 29.5332 21.3865 29.2591C21.5697 28.985 21.6674 28.6628 21.6674 28.3331C21.6674 27.8911 21.4918 27.4672 21.1793 27.1546C20.8667 26.8421 20.4428 26.6665 20.0008 26.6665ZM37.7841 29.1165L24.3674 5.78313C23.9338 5.00566 23.3004 4.35806 22.5327 3.90725C21.7651 3.45643 20.891 3.21875 20.0008 3.21875C19.1105 3.21875 18.2364 3.45643 17.4688 3.90725C16.7011 4.35806 16.0677 5.00566 15.6341 5.78313L2.30076 29.1165C1.85209 29.8732 1.611 30.7348 1.60183 31.6145C1.59267 32.4942 1.81576 33.3607 2.24857 34.1266C2.68138 34.8924 3.3086 35.5306 4.0669 35.9765C4.8252 36.4225 5.68774 36.6605 6.56743 36.6665H33.4341C34.3208 36.6752 35.194 36.4479 35.9639 36.008C36.7339 35.568 37.373 34.9312 37.8157 34.1628C38.2584 33.3945 38.4888 32.5221 38.4833 31.6354C38.4777 30.7486 38.2364 29.8792 37.7841 29.1165ZM34.9008 32.4498C34.7547 32.7097 34.5415 32.9257 34.2836 33.0752C34.0256 33.2247 33.7322 33.3023 33.4341 33.2998H6.56743C6.26928 33.3023 5.97592 33.2247 5.71796 33.0752C5.45999 32.9257 5.24685 32.7097 5.10076 32.4498C4.95448 32.1964 4.87747 31.909 4.87747 31.6165C4.87747 31.3239 4.95448 31.0365 5.10076 30.7831L18.4341 7.4498C18.574 7.1768 18.7864 6.94769 19.0482 6.78771C19.3099 6.62772 19.6107 6.54307 19.9174 6.54307C20.2242 6.54307 20.525 6.62772 20.7867 6.78771C21.0484 6.94769 21.2609 7.1768 21.4008 7.4498L34.8174 30.7831C34.9828 31.0329 35.0778 31.3225 35.0925 31.6217C35.1071 31.9209 35.0409 32.2184 34.9008 32.4831V32.4498ZM20.0008 13.3331C19.5587 13.3331 19.1348 13.5087 18.8222 13.8213C18.5097 14.1339 18.3341 14.5578 18.3341 14.9998V21.6665C18.3341 22.1085 18.5097 22.5324 18.8222 22.845C19.1348 23.1575 19.5587 23.3331 20.0008 23.3331C20.4428 23.3331 20.8667 23.1575 21.1793 22.845C21.4918 22.5324 21.6674 22.1085 21.6674 21.6665V14.9998C21.6674 14.5578 21.4918 14.1339 21.1793 13.8213C20.8667 13.5087 20.4428 13.3331 20.0008 13.3331Z" fill="#F04438"/>
</svg>
