<svg width="24" height="24" viewBox="0 0 24 24" fill="none" xmlns="http://www.w3.org/2000/svg">
<g id="User Interface / Cancel">
<path id="Vector" d="M13.4099 11.9963L17.7099 7.70628C17.8982 7.51798 18.004 7.26258 18.004 6.99628C18.004 6.72998 17.8982 6.47458 17.7099 6.28628C17.5216 6.09798 17.2662 5.99219 16.9999 5.99219C16.7336 5.99219 16.4782 6.09798 16.2899 6.28628L11.9999 10.5863L7.70994 6.28628C7.52164 6.09798 7.26624 5.99219 6.99994 5.99219C6.73364 5.99219 6.47824 6.09798 6.28994 6.28628C6.10164 6.47458 5.99585 6.72998 5.99585 6.99628C5.99585 7.26258 6.10164 7.51798 6.28994 7.70628L10.5899 11.9963L6.28994 16.2863C6.19621 16.3792 6.12182 16.4898 6.07105 16.6117C6.02028 16.7336 5.99414 16.8643 5.99414 16.9963C5.99414 17.1283 6.02028 17.259 6.07105 17.3809C6.12182 17.5027 6.19621 17.6133 6.28994 17.7063C6.3829 17.8 6.4935 17.8744 6.61536 17.9252C6.73722 17.9759 6.86793 18.0021 6.99994 18.0021C7.13195 18.0021 7.26266 17.9759 7.38452 17.9252C7.50638 17.8744 7.61698 17.8 7.70994 17.7063L11.9999 13.4063L16.2899 17.7063C16.3829 17.8 16.4935 17.8744 16.6154 17.9252C16.7372 17.9759 16.8679 18.0021 16.9999 18.0021C17.132 18.0021 17.2627 17.9759 17.3845 17.9252C17.5064 17.8744 17.617 17.8 17.7099 17.7063C17.8037 17.6133 17.8781 17.5027 17.9288 17.3809C17.9796 17.259 18.0057 17.1283 18.0057 16.9963C18.0057 16.8643 17.9796 16.7336 17.9288 16.6117C17.8781 16.4898 17.8037 16.3792 17.7099 16.2863L13.4099 11.9963Z" fill="white"/>
</g>
</svg>
