<svg width="224" height="40" viewBox="0 0 224 40" fill="none" xmlns="http://www.w3.org/2000/svg">
<path fill-rule="evenodd" clip-rule="evenodd" d="M33.1449 25.8387C31.9665 28.133 30.0762 29.9524 27.7769 31.005C25.4778 32.0577 22.9028 32.2826 20.4651 31.6438C18.0272 31.005 15.8678 29.5395 14.333 27.4822C12.7981 25.4248 11.9767 22.8949 12.0005 20.2981C12.0243 17.7012 12.8921 15.1878 14.4644 13.1609C16.0366 11.1339 18.2227 9.71088 20.6717 9.11987C23.1208 8.52892 25.6912 8.80416 27.9706 9.90158C30.25 10.999 32.1066 12.855 33.2426 15.172L29.592 17.0804C28.4149 14.6846 26.0065 13.0426 23.2266 13.0426C19.2872 13.0426 16.0937 16.3401 16.0937 20.4078C16.0937 24.4755 19.2872 27.773 23.2266 27.773C25.9584 27.773 28.3314 26.1876 29.5296 23.8591L33.1449 25.8387Z" fill="white"/>
<path d="M43.9922 19.9314C43.9922 21.5204 42.7446 22.8086 41.2057 22.8086C39.6668 22.8086 38.4192 21.5204 38.4192 19.9314C38.4192 18.3423 39.6668 17.0541 41.2057 17.0541C42.7446 17.0541 43.9922 18.3423 43.9922 19.9314Z" fill="white"/>
<path d="M32.2234 20.2195C31.0176 21.4645 30.5182 22.9674 29.3125 21.7224C28.9656 21.3642 29.5622 19.9617 30.7679 18.7166C31.9737 17.4716 33.3471 16.8712 33.6789 17.2138C34.8846 18.4588 33.4291 18.9745 32.2234 20.2195Z" fill="white"/>
<path d="M31.8453 19.8291C30.6396 21.0741 29.1841 21.5898 30.3898 22.8349C30.7367 23.193 32.095 22.577 33.3008 21.332C34.5065 20.087 35.088 18.6688 34.7562 18.3263C33.5505 17.0812 33.0511 18.5841 31.8453 19.8291Z" fill="white"/>
<path d="M33.7172 17.2534L34.7093 18.2778L30.3429 22.7864L29.3508 21.762L33.7172 17.2534Z" fill="white"/>
<path d="M22.9155 22.9897C21.4203 22.1432 19.8832 22.069 20.703 20.5251C20.852 20.2445 22.1388 20.6867 23.634 21.5332C25.1291 22.3797 26.2693 23.3049 26.1175 23.5907C25.2977 25.1346 24.4106 23.8362 22.9155 22.9897Z" fill="white"/>
<path d="M23.1725 22.5056C21.6774 21.6591 20.7903 20.3608 19.9705 21.9047C19.7346 22.3488 20.744 23.1526 22.2392 23.9992C23.7344 24.8457 25.2122 25.2956 25.385 24.9702C26.2048 23.4263 24.6677 23.3521 23.1725 22.5056Z" fill="white"/>
<path d="M26.0914 23.6398L25.4169 24.9101L20.0024 21.8446L20.6769 20.5743L26.0914 23.6398Z" fill="white"/>
<path d="M69.7414 16.5261H65.8323C65.7208 15.8642 65.5153 15.2778 65.2157 14.7669C64.916 14.2489 64.5432 13.81 64.0973 13.4502C63.6513 13.0905 63.1427 12.8207 62.5713 12.6408C62.0069 12.4537 61.3972 12.3602 60.7422 12.3602C59.5785 12.3602 58.5472 12.6624 57.6483 13.2667C56.7494 13.8639 56.0457 14.7417 55.537 15.9001C55.0283 17.0513 54.774 18.458 54.774 20.12C54.774 21.8108 55.0283 23.2354 55.537 24.3938C56.0526 25.545 56.7564 26.4156 57.6483 27.0056C58.5472 27.5884 59.575 27.8798 60.7317 27.8798C61.3728 27.8798 61.972 27.7935 62.5295 27.6208C63.0939 27.4409 63.5991 27.1783 64.045 26.833C64.4979 26.4876 64.8777 26.0631 65.1843 25.5594C65.4979 25.0558 65.7139 24.4802 65.8323 23.8326L69.7414 23.8542C69.5951 24.9047 69.278 25.8904 68.7903 26.8114C68.3095 27.7323 67.6789 28.5454 66.8985 29.2505C66.118 29.9484 65.2052 30.4952 64.16 30.8909C63.1148 31.2795 61.9546 31.4737 60.6794 31.4737C58.7981 31.4737 57.1188 31.024 55.6415 30.1247C54.1643 29.2253 53.0006 27.9266 52.1505 26.2286C51.3004 24.5305 50.8754 22.4944 50.8754 20.12C50.8754 17.7385 51.3039 15.7023 52.161 14.0114C53.018 12.3134 54.1852 11.0147 55.6624 10.1153C57.1397 9.21596 58.812 8.76627 60.6794 8.76627C61.871 8.76627 62.9789 8.93895 64.0032 9.28431C65.0275 9.62967 65.9403 10.1369 66.7417 10.8061C67.543 11.468 68.2015 12.281 68.7171 13.2452C69.2397 14.2021 69.5812 15.2957 69.7414 16.5261Z" fill="white"/>
<path d="M80.1282 31.4953C78.5604 31.4953 77.2016 31.1392 76.0519 30.4269C74.9022 29.7146 74.0102 28.718 73.3762 27.4373C72.749 26.1566 72.4355 24.6601 72.4355 22.9476C72.4355 21.2352 72.749 19.7351 73.3762 18.4472C74.0102 17.1593 74.9022 16.1591 76.0519 15.4468C77.2016 14.7345 78.5604 14.3784 80.1282 14.3784C81.696 14.3784 83.0548 14.7345 84.2045 15.4468C85.3543 16.1591 86.2427 17.1593 86.8698 18.4472C87.5039 19.7351 87.821 21.2352 87.821 22.9476C87.821 24.6601 87.5039 26.1566 86.8698 27.4373C86.2427 28.718 85.3543 29.7146 84.2045 30.4269C83.0548 31.1392 81.696 31.4953 80.1282 31.4953ZM80.1491 28.3655C80.9992 28.3655 81.71 28.1245 82.2814 27.6424C82.8527 27.1531 83.2778 26.4984 83.5565 25.6782C83.8422 24.8579 83.9851 23.9442 83.9851 22.9368C83.9851 21.9224 83.8422 21.005 83.5565 20.1848C83.2778 19.3573 82.8527 18.699 82.2814 18.2097C81.71 17.7205 80.9992 17.4758 80.1491 17.4758C79.2781 17.4758 78.5534 17.7205 77.9751 18.2097C77.4037 18.699 76.9752 19.3573 76.6895 20.1848C76.4108 21.005 76.2714 21.9224 76.2714 22.9368C76.2714 23.9442 76.4108 24.8579 76.6895 25.6782C76.9752 26.4984 77.4037 27.1531 77.9751 27.6424C78.5534 28.1245 79.2781 28.3655 80.1491 28.3655Z" fill="white"/>
<path d="M91.0324 31.1715V14.5942H94.8161V31.1715H91.0324ZM92.9347 12.2415C92.3354 12.2415 91.8198 12.0364 91.3878 11.6263C90.9557 11.209 90.7397 10.7089 90.7397 10.1261C90.7397 9.53614 90.9557 9.03608 91.3878 8.62597C91.8198 8.20866 92.3354 8 92.9347 8C93.5409 8 94.0565 8.20866 94.4816 8.62597C94.9136 9.03608 95.1296 9.53614 95.1296 10.1261C95.1296 10.7089 94.9136 11.209 94.4816 11.6263C94.0565 12.0364 93.5409 12.2415 92.9347 12.2415Z" fill="white"/>
<path d="M102.491 21.4583V31.1715H98.7069V14.5942H102.323V17.4111H102.511C102.881 16.4829 103.47 15.7454 104.278 15.1986C105.093 14.6518 106.1 14.3784 107.299 14.3784C108.406 14.3784 109.372 14.623 110.194 15.1123C111.023 15.6015 111.664 16.3102 112.117 17.2384C112.577 18.1666 112.803 19.2926 112.796 20.6165V31.1715H109.013V21.2208C109.013 20.1128 108.734 19.2458 108.176 18.6198C107.626 17.9939 106.863 17.6809 105.887 17.6809C105.226 17.6809 104.637 17.832 104.121 18.1342C103.612 18.4292 103.212 18.8573 102.919 19.4185C102.633 19.9797 102.491 20.6596 102.491 21.4583Z" fill="white"/>
<path d="M116.81 31.1715V9.06846H120.688V18.4256H130.607V9.06846H134.495V31.1715H130.607V21.7821H120.688V31.1715H116.81Z" fill="white"/>
<path d="M148.778 24.1996V14.5942H152.561V31.1715H148.893V28.2252H148.725C148.363 29.1533 147.767 29.9124 146.938 30.5024C146.116 31.0924 145.102 31.3874 143.897 31.3874C142.844 31.3874 141.914 31.1464 141.106 30.6643C140.305 30.175 139.677 29.4663 139.225 28.5382C138.772 27.6028 138.545 26.4732 138.545 25.1493V14.5942H142.329V24.5449C142.329 25.5954 142.607 26.43 143.165 27.0488C143.722 27.6676 144.454 27.977 145.36 27.977C145.917 27.977 146.457 27.8367 146.98 27.556C147.503 27.2754 147.931 26.8581 148.266 26.3041C148.607 25.7429 148.778 25.0414 148.778 24.1996Z" fill="white"/>
<path d="M160.236 21.4583V31.1715H156.452V14.5942H160.069V17.4111H160.257C160.626 16.4829 161.215 15.7454 162.023 15.1986C162.838 14.6518 163.845 14.3784 165.044 14.3784C166.152 14.3784 167.117 14.623 167.939 15.1123C168.768 15.6015 169.409 16.3102 169.862 17.2384C170.322 18.1666 170.549 19.2926 170.542 20.6165V31.1715H166.758V21.2208C166.758 20.1128 166.479 19.2458 165.922 18.6198C165.371 17.9939 164.608 17.6809 163.633 17.6809C162.971 17.6809 162.382 17.832 161.866 18.1342C161.358 18.4292 160.957 18.8573 160.664 19.4185C160.379 19.9797 160.236 20.6596 160.236 21.4583Z" fill="white"/>
<path d="M182.405 14.5942V17.6161H173.176V14.5942H182.405ZM175.454 10.6226H179.238V26.1854C179.238 26.7106 179.314 27.1136 179.468 27.3942C179.628 27.6676 179.837 27.8546 180.095 27.9554C180.353 28.0561 180.638 28.1065 180.952 28.1065C181.189 28.1065 181.405 28.0885 181.6 28.0525C181.802 28.0165 181.955 27.9842 182.06 27.9554L182.697 31.0097C182.495 31.0816 182.206 31.1608 181.83 31.2471C181.461 31.3334 181.008 31.3838 180.471 31.3982C179.524 31.427 178.67 31.2795 177.91 30.9557C177.151 30.6247 176.548 30.1139 176.102 29.4232C175.663 28.7324 175.447 27.869 175.454 26.833V10.6226Z" fill="white"/>
<path d="M192.504 31.4953C190.895 31.4953 189.504 31.15 188.334 30.4592C187.17 29.7613 186.275 28.7756 185.648 27.5021C185.02 26.2214 184.707 24.714 184.707 22.98C184.707 21.2748 185.02 19.7782 185.648 18.4903C186.282 17.1952 187.167 16.1879 188.302 15.4684C189.438 14.7417 190.773 14.3784 192.306 14.3784C193.295 14.3784 194.229 14.5439 195.107 14.8748C195.992 15.1986 196.772 15.7023 197.448 16.3858C198.131 17.0693 198.667 17.9399 199.058 18.9976C199.448 20.0481 199.643 21.3 199.643 22.7534V23.9513H186.484V21.318H196.016C196.009 20.5697 195.852 19.9042 195.546 19.3214C195.239 18.7314 194.811 18.2673 194.26 17.9291C193.717 17.591 193.083 17.4219 192.358 17.4219C191.584 17.4219 190.905 17.6161 190.32 18.0047C189.734 18.386 189.278 18.8897 188.95 19.5156C188.63 20.1344 188.466 20.8143 188.459 21.5554V23.8542C188.459 24.8183 188.63 25.6458 188.971 26.3365C189.313 27.02 189.79 27.5453 190.403 27.9122C191.016 28.272 191.734 28.4518 192.556 28.4518C193.107 28.4518 193.605 28.3727 194.051 28.2144C194.497 28.0489 194.884 27.8079 195.211 27.4913C195.539 27.1747 195.786 26.7826 195.953 26.3149L199.486 26.725C199.263 27.6892 198.838 28.531 198.211 29.2505C197.591 29.9628 196.797 30.5168 195.828 30.9125C194.859 31.3011 193.751 31.4953 192.504 31.4953Z" fill="white"/>
<path d="M202.844 31.1715V14.5942H206.513V17.3571H206.68C206.973 16.4002 207.474 15.6627 208.185 15.1446C208.903 14.6194 209.721 14.3568 210.641 14.3568C210.85 14.3568 211.084 14.3676 211.342 14.3892C211.606 14.4036 211.826 14.4287 212 14.4647V18.0586C211.84 18.0011 211.585 17.9507 211.237 17.9075C210.896 17.8572 210.565 17.832 210.244 17.832C209.554 17.832 208.934 17.9867 208.384 18.2961C207.84 18.5983 207.412 19.0192 207.098 19.5588C206.784 20.0984 206.628 20.7208 206.628 21.4259V31.1715H202.844Z" fill="white"/>
</svg>
