<svg width="40" height="40" viewBox="0 0 40 40" fill="none" xmlns="http://www.w3.org/2000/svg">
<path d="M24.533 14.6526L17.383 21.8193L14.633 19.0693C14.4836 18.8948 14.2997 18.7531 14.093 18.6531C13.8862 18.553 13.661 18.4968 13.4314 18.4879C13.2019 18.4791 12.973 18.5178 12.7591 18.6015C12.5453 18.6853 12.351 18.8124 12.1886 18.9749C12.0262 19.1373 11.8991 19.3315 11.8153 19.5454C11.7315 19.7593 11.6928 19.9882 11.7017 20.2177C11.7106 20.4472 11.7668 20.6724 11.8668 20.8792C11.9668 21.086 12.1085 21.2699 12.283 21.4193L16.1997 25.3526C16.3554 25.5071 16.5401 25.6293 16.7432 25.7122C16.9462 25.7952 17.1637 25.8372 17.383 25.8359C17.8202 25.8341 18.2392 25.6605 18.5497 25.3526L26.883 17.0193C27.0392 16.8643 27.1632 16.68 27.2478 16.4769C27.3325 16.2738 27.376 16.056 27.376 15.8359C27.376 15.6159 27.3325 15.3981 27.2478 15.195C27.1632 14.9919 27.0392 14.8075 26.883 14.6526C26.5707 14.3422 26.1483 14.168 25.708 14.168C25.2677 14.168 24.8453 14.3422 24.533 14.6526ZM19.9997 3.33594C16.7033 3.33594 13.481 4.31342 10.7402 6.14478C7.99936 7.97613 5.86315 10.5791 4.60169 13.6245C3.34023 16.67 3.01017 20.0211 3.65326 23.2541C4.29635 26.4871 5.88369 29.4568 8.21457 31.7877C10.5454 34.1186 13.5152 35.7059 16.7482 36.349C19.9812 36.9921 23.3323 36.6621 26.3777 35.4006C29.4232 34.1391 32.0261 32.0029 33.8575 29.2621C35.6889 26.5213 36.6663 23.299 36.6663 20.0026C36.6663 17.8139 36.2353 15.6466 35.3977 13.6245C34.5601 11.6025 33.3324 9.76513 31.7848 8.21749C30.2372 6.66985 28.3998 5.44219 26.3777 4.60461C24.3556 3.76703 22.1884 3.33594 19.9997 3.33594ZM19.9997 33.3359C17.3626 33.3359 14.7847 32.554 12.5921 31.0889C10.3994 29.6238 8.69046 27.5414 7.68129 25.1051C6.67212 22.6687 6.40808 19.9878 6.92255 17.4014C7.43702 14.815 8.70689 12.4392 10.5716 10.5745C12.4363 8.70981 14.8121 7.43994 17.3985 6.92547C19.9849 6.411 22.6658 6.67504 25.1021 7.68421C27.5385 8.69338 29.6209 10.4023 31.0859 12.595C32.551 14.7877 33.333 17.3655 33.333 20.0026C33.333 23.5388 31.9283 26.9302 29.4278 29.4307C26.9273 31.9312 23.5359 33.3359 19.9997 33.3359Z" fill="#12B76A"/>
</svg>
