<svg width="40" height="40" viewBox="0 0 40 40" fill="none" xmlns="http://www.w3.org/2000/svg">
<g clip-path="url(#clip0_4266_9702)">
<path d="M20 40C31.0457 40 40 31.0457 40 20C40 8.95431 31.0457 0 20 0C8.95431 0 0 8.95431 0 20C0 31.0457 8.95431 40 20 40Z" fill="url(#paint0_linear_4266_9702)"/>
<path d="M13.5391 21.4596L15.9119 28.0273C15.9119 28.0273 16.2086 28.6418 16.5262 28.6418C16.8439 28.6418 21.5687 23.7265 21.5687 23.7265L26.8229 13.5781L13.6237 19.7643L13.5391 21.4596Z" fill="#C8DAEA"/>
<path d="M16.6861 23.1484L16.2306 27.9894C16.2306 27.9894 16.04 29.4728 17.523 27.9894C19.006 26.5061 20.4255 25.3623 20.4255 25.3623" fill="#A9C6D8"/>
<path d="M13.5794 21.6965L8.69839 20.1061C8.69839 20.1061 8.11506 19.8695 8.30289 19.3328C8.34156 19.2221 8.41956 19.128 8.65289 18.9661C9.73439 18.2123 28.6706 11.4061 28.6706 11.4061C28.6706 11.4061 29.2052 11.226 29.5206 11.3458C29.5986 11.37 29.6688 11.4144 29.724 11.4746C29.7792 11.5348 29.8174 11.6085 29.8347 11.6883C29.8688 11.8293 29.883 11.9743 29.8771 12.1191C29.8756 12.2445 29.8604 12.3606 29.8489 12.5428C29.7336 14.4036 26.2822 28.2916 26.2822 28.2916C26.2822 28.2916 26.0757 29.1043 25.3359 29.1322C25.1541 29.138 24.9729 29.1072 24.8033 29.0416C24.6336 28.976 24.4789 28.8768 24.3484 28.7501C22.8966 27.5013 17.8786 24.129 16.7697 23.3873C16.7447 23.3703 16.7236 23.3481 16.708 23.3222C16.6923 23.2963 16.6823 23.2674 16.6787 23.2373C16.6632 23.1592 16.7482 23.0623 16.7482 23.0623C16.7482 23.0623 25.4859 15.2956 25.7184 14.4803C25.7364 14.4171 25.6684 14.386 25.5771 14.4136C24.9967 14.6271 14.9364 20.9803 13.8261 21.6815C13.7461 21.7057 13.6617 21.7108 13.5794 21.6965Z" fill="white"/>
</g>
<defs>
<linearGradient id="paint0_linear_4266_9702" x1="20" y1="40" x2="20" y2="0" gradientUnits="userSpaceOnUse">
<stop stop-color="#1D93D2"/>
<stop offset="1" stop-color="#38B0E3"/>
</linearGradient>
<clipPath id="clip0_4266_9702">
<rect width="40" height="40" fill="white"/>
</clipPath>
</defs>
</svg>
