<svg width="25" height="24" viewBox="0 0 25 24" fill="none" xmlns="http://www.w3.org/2000/svg">
<path d="M12.4941 2C10.5163 2 8.58293 2.58649 6.93844 3.6853C5.29395 4.78412 4.01223 6.3459 3.25535 8.17317C2.49847 10.0004 2.30044 12.0111 2.68629 13.9509C3.07214 15.8907 4.02455 17.6725 5.42308 19.0711C6.8216 20.4696 8.60343 21.422 10.5432 21.8079C12.4831 22.1937 14.4937 21.9957 16.321 21.2388C18.1482 20.4819 19.71 19.2002 20.8088 17.5557C21.9077 15.9112 22.4941 13.9778 22.4941 12C22.4943 10.6868 22.2357 9.38634 21.7332 8.17304C21.2307 6.95973 20.4941 5.8573 19.5655 4.92869C18.6368 4.00008 17.5344 3.26349 16.3211 2.76098C15.1078 2.25847 13.8074 1.99989 12.4941 2ZM15.6737 17.1525C15.6362 17.2458 15.5793 17.33 15.5066 17.3996C15.434 17.4691 15.3473 17.5223 15.2524 17.5556C15.1575 17.5889 15.0566 17.6015 14.9565 17.5926C14.8563 17.5837 14.7592 17.5535 14.6717 17.504L11.957 15.3946L10.2147 17.002C10.1742 17.0319 10.1269 17.0511 10.0771 17.0579C10.0273 17.0647 9.97662 17.0589 9.92967 17.0409L10.2637 14.0525L10.2744 14.061L10.2812 14.002C10.2812 14.002 15.1662 9.55445 15.3652 9.36496C15.5667 9.17596 15.5002 9.13496 15.5002 9.13496C15.5117 8.90443 15.1387 9.13496 15.1387 9.13496L8.66614 13.299L5.97066 12.381C5.97066 12.381 5.55666 12.2325 5.51766 11.906C5.47666 11.582 5.98415 11.406 5.98415 11.406L16.7011 7.14849C16.7011 7.14849 17.5821 6.75597 17.5821 7.406L15.6737 17.1525Z" fill="white"/>
</svg>
