<svg width="16" height="16" viewBox="0 0 16 16" fill="none" xmlns="http://www.w3.org/2000/svg">
<path d="M14.8425 1.62047C14.6527 1.46256 14.4236 1.35907 14.1796 1.32101C13.9357 1.28295 13.686 1.31174 13.4571 1.40433L1.50979 6.2279C1.25429 6.33302 1.0368 6.51336 0.886189 6.74498C0.735578 6.9766 0.658967 7.24854 0.666526 7.52472C0.674084 7.80089 0.765454 8.06824 0.928508 8.29128C1.09156 8.51431 1.31859 8.68248 1.57946 8.77347L3.99612 9.61397L5.34312 14.0684C5.36143 14.1279 5.38799 14.1845 5.42204 14.2367C5.42721 14.2447 5.4345 14.2506 5.43999 14.2584C5.47933 14.3133 5.52687 14.3618 5.58094 14.4022C5.59632 14.4139 5.61105 14.4249 5.62749 14.4353C5.69078 14.4773 5.76087 14.508 5.83464 14.5261L5.84254 14.5267L5.84701 14.5287C5.89137 14.5377 5.93651 14.5423 5.98178 14.5423C5.98613 14.5423 5.99 14.5403 5.99431 14.5402C6.06262 14.539 6.13033 14.5272 6.19504 14.5053C6.21009 14.5002 6.22299 14.4916 6.2376 14.4854C6.28585 14.4654 6.33156 14.4398 6.37379 14.409C6.4076 14.3805 6.44143 14.3521 6.47527 14.3236L8.27671 12.3347L10.9636 14.416C11.2001 14.6002 11.4913 14.7003 11.791 14.7005C12.1052 14.7001 12.4096 14.5918 12.6533 14.3936C12.897 14.1954 13.0652 13.9194 13.1296 13.612L15.3047 2.93428C15.354 2.69396 15.337 2.44476 15.2556 2.21334C15.1742 1.98192 15.0314 1.77699 14.8425 1.62047ZM6.24612 9.82621C6.15368 9.91828 6.09049 10.0356 6.06448 10.1634L5.85814 11.1661L5.33544 9.4374L8.0456 8.0261L6.24612 9.82621ZM11.7806 13.362L8.60549 10.9024C8.47266 10.7997 8.30602 10.7509 8.13879 10.7656C7.97156 10.7803 7.81601 10.8575 7.70315 10.9818L7.12621 11.6186L7.3301 10.6276L12.0521 5.90561C12.1648 5.79305 12.2335 5.64385 12.2457 5.48503C12.2579 5.32621 12.2128 5.16827 12.1186 5.03982C12.0244 4.91138 11.8873 4.82092 11.7321 4.78484C11.577 4.74875 11.414 4.76943 11.2728 4.84311L4.49596 8.37153L2.01305 7.46293L13.9987 2.66799L11.7806 13.362Z" fill="#A3A3C1"/>
</svg>
