<svg width="16" height="16" viewBox="0 0 16 16" fill="none" xmlns="http://www.w3.org/2000/svg">
<path d="M7.33269 1.33594C6.01414 1.33594 4.72521 1.72693 3.62888 2.45947C2.53256 3.19202 1.67807 4.23321 1.17349 5.45138C0.668904 6.66956 0.536882 8.01 0.794117 9.30321C1.05135 10.5964 1.68629 11.7843 2.61864 12.7167C3.55099 13.649 4.73888 14.2839 6.03208 14.5412C7.32529 14.7984 8.66573 14.6664 9.88391 14.1618C11.1021 13.6572 12.1433 12.8027 12.8758 11.7064C13.6084 10.6101 13.9994 9.32115 13.9994 8.0026C13.9994 7.12713 13.8269 6.26022 13.4919 5.45138C13.1569 4.64254 12.6658 3.90762 12.0467 3.28856C11.4277 2.6695 10.6927 2.17844 9.88391 1.84341C9.07507 1.50838 8.20816 1.33594 7.33269 1.33594ZM7.33269 13.3359C6.27785 13.3359 5.24671 13.0231 4.36964 12.4371C3.49258 11.8511 2.809 11.0181 2.40533 10.0436C2.00166 9.06904 1.89604 7.99669 2.10183 6.96212C2.30762 5.92756 2.81557 4.97725 3.56145 4.23137C4.30733 3.48549 5.25764 2.97754 6.2922 2.77175C7.32677 2.56596 8.39912 2.67158 9.37366 3.07525C10.3482 3.47891 11.1812 4.1625 11.7672 5.03956C12.3532 5.91663 12.666 6.94777 12.666 8.0026C12.666 9.41709 12.1041 10.7736 11.1039 11.7738C10.1037 12.774 8.74717 13.3359 7.33269 13.3359ZM9.39935 8.4226L7.99935 7.61594V4.66927C7.99935 4.49246 7.92911 4.32289 7.80409 4.19787C7.67907 4.07284 7.5095 4.0026 7.33269 4.0026C7.15587 4.0026 6.98631 4.07284 6.86128 4.19787C6.73626 4.32289 6.66602 4.49246 6.66602 4.66927V8.0026C6.66602 8.0026 6.66602 8.05594 6.66602 8.0826C6.66997 8.12854 6.68122 8.17355 6.69935 8.21594C6.71308 8.25549 6.73096 8.29348 6.75269 8.32927C6.77093 8.36716 6.79328 8.40293 6.81935 8.43594L6.92602 8.5226L6.98602 8.5826L8.71935 9.5826C8.82095 9.64019 8.9359 9.67008 9.05269 9.66927C9.2003 9.6703 9.34408 9.62231 9.46148 9.53283C9.57888 9.44335 9.66326 9.31743 9.70139 9.17482C9.73952 9.03222 9.72924 8.88099 9.67216 8.74486C9.61509 8.60872 9.51445 8.49538 9.38602 8.4226H9.39935Z" fill="#A3A3C1"/>
</svg>
