<svg width="20" height="19" viewBox="0 0 20 19" fill="none" xmlns="http://www.w3.org/2000/svg">
<path d="M17.9297 0.0859375H2.92969V3.72594H8.61969V9.08594H12.2397V3.72594H17.9297V0.0859375Z" fill="white"/>
<path d="M10.4297 9.64594C5.75969 9.64594 1.96969 8.89594 1.96969 7.96594C1.96969 7.03594 5.75969 6.29594 10.4297 6.29594C15.0997 6.29594 18.8897 7.04594 18.8897 7.96594C18.8897 8.88594 15.0997 9.64594 10.4297 9.64594ZM19.9297 8.24594C19.9297 7.05594 15.6797 6.08594 10.4297 6.08594C5.17969 6.08594 0.929688 7.05594 0.929688 8.25594C0.929688 9.30594 4.22969 10.1759 8.59969 10.3759V18.0859H12.1997V10.3859C16.5997 10.1859 19.9297 9.30594 19.9297 8.25594V8.24594Z" fill="white"/>
</svg>
