<svg width="56" height="56" viewBox="0 0 56 56" fill="none" xmlns="http://www.w3.org/2000/svg">
<path d="M44.5789 7H11.4211V15.0215H23.9989V26.8333H32.0011V15.0215H44.5789V7Z" fill="white"/>
<path d="M28 28.0674C17.6768 28.0674 9.29895 26.4146 9.29895 24.3652C9.29895 22.3157 17.6768 20.685 28 20.685C38.3232 20.685 46.7011 22.3378 46.7011 24.3652C46.7011 26.3926 38.3232 28.0674 28 28.0674ZM49 24.9822C49 22.3598 39.6053 20.2222 28 20.2222C16.3947 20.2222 7 22.3598 7 25.0043C7 27.3181 14.2947 29.2354 23.9547 29.6761V46.6667H31.9126V29.6981C41.6389 29.2574 49 27.3181 49 25.0043V24.9822Z" fill="white"/>
</svg>
