<svg width="240" height="52" viewBox="0 0 240 52" fill="none" xmlns="http://www.w3.org/2000/svg">
<path d="M28.3268 22.6829L36.4063 14.6067L44.489 22.6895L49.1876 17.9877L36.4063 5.20312L23.625 17.9844L28.3268 22.6829Z" fill="white"/>
<path d="M15.5996 26L20.2997 21.2999L24.9998 26L20.2997 30.7001L15.5996 26Z" fill="white"/>
<path d="M28.3256 29.3236L36.405 37.4031L44.4878 29.3203L49.1896 34.0155L49.1863 34.0188L36.405 46.8034L23.6238 34.0254L23.6172 34.0188L28.3256 29.3236Z" fill="white"/>
<path d="M47.7969 26.0078L52.497 21.3077L57.197 26.0078L52.497 30.7079L47.7969 26.0078Z" fill="white"/>
<path d="M41.1725 26.0052L36.4049 21.2344L32.8794 24.7599L32.472 25.164L31.6374 25.9986L31.6309 26.0052L31.6374 26.015L36.4049 30.7793L41.1725 26.0085L41.1757 26.0052H41.1725Z" fill="white"/>
<path d="M64.5312 15.2812H74.7563C77.2928 15.2812 79.2117 15.9384 80.5128 17.2527C81.003 17.7381 81.3894 18.3182 81.6487 18.9575C81.9079 19.5969 82.0346 20.2823 82.0209 20.972V21.0345C82.0297 21.5995 81.951 22.1626 81.7876 22.7036C81.6421 23.1693 81.4307 23.6119 81.1601 24.0179C80.9077 24.4007 80.6024 24.7458 80.2532 25.043C79.912 25.3366 79.5383 25.5902 79.1394 25.7987C80.2899 26.1994 81.3244 26.8764 82.1523 27.7701C82.8839 28.6025 83.2498 29.7525 83.2498 31.2201V31.2825C83.2705 32.1991 83.0711 33.1072 82.6682 33.9307C82.2778 34.6895 81.7054 35.3397 81.0023 35.8233C80.2075 36.3562 79.3224 36.7403 78.3902 36.9569C77.2828 37.2195 76.1474 37.3464 75.0093 37.3347H64.5312V15.2812ZM73.7311 24.1986C74.6158 24.2413 75.4962 24.051 76.2841 23.6466C76.5914 23.4671 76.8423 23.2051 77.0084 22.8904C77.1745 22.5757 77.2491 22.2207 77.2238 21.8657V21.8033C77.2401 21.4762 77.1737 21.1504 77.0307 20.8557C76.8877 20.5611 76.6727 20.3073 76.4057 20.1178C75.8603 19.7301 75.0728 19.5362 74.0433 19.5362H69.2593V24.1986H73.7311ZM75.0224 33.0863C75.9038 33.1357 76.7811 32.934 77.5524 32.5048C77.8529 32.3117 78.0961 32.0416 78.2567 31.7226C78.4174 31.4037 78.4896 31.0474 78.4658 30.6911V30.6286C78.4776 30.2899 78.4063 29.9535 78.2579 29.6487C78.1095 29.344 77.8887 29.0803 77.6148 28.8807C77.0497 28.4426 76.1363 28.2235 74.8746 28.2235H69.2593V33.0863H75.0224Z" fill="white"/>
<path d="M89.3398 15.2812H94.1928V37.3413H89.3398V15.2812Z" fill="white"/>
<path d="M101.543 15.2812H106.018L116.361 28.8577V15.2812H121.152V37.3413H117.022L106.34 23.318V37.3413H101.543V15.2812Z" fill="white"/>
<path d="M135.843 15.125H140.311L149.764 37.3427H144.698L142.68 32.3945H133.352L131.335 37.3427H126.387L135.843 15.125ZM140.949 28.11L138.011 20.9538L135.087 28.11H140.949Z" fill="white"/>
<path d="M155.008 15.2812H159.483L169.82 28.8577V15.2812H174.61V37.3413H170.48L159.798 23.318V37.3413H155.008V15.2812Z" fill="white"/>
<path d="M192.076 37.7307C190.529 37.744 188.996 37.4445 187.568 36.8502C186.224 36.2951 185.004 35.4765 183.981 34.4427C182.958 33.409 182.152 32.1809 181.611 30.8308C181.04 29.4187 180.751 27.9085 180.76 26.3853V26.3229C180.735 23.3205 181.89 20.4283 183.977 18.2697C185.004 17.2152 186.233 16.3792 187.591 15.812C189.068 15.2001 190.655 14.8949 192.253 14.915C193.199 14.9079 194.143 14.9927 195.073 15.168C195.868 15.3184 196.645 15.5507 197.392 15.8613C198.07 16.1467 198.715 16.5059 199.314 16.9324C199.899 17.3484 200.449 17.8122 200.957 18.319L197.872 21.8806C197.084 21.1533 196.199 20.5375 195.243 20.0505C194.305 19.6016 193.274 19.3766 192.234 19.3934C191.368 19.3841 190.51 19.5592 189.717 19.9071C188.924 20.2549 188.214 20.7675 187.634 21.4108C187.059 22.0524 186.609 22.7956 186.306 23.6023C185.99 24.4548 185.831 25.3577 185.837 26.267V26.3294C185.833 27.2375 185.993 28.1387 186.306 28.9908C186.605 29.8004 187.051 30.5478 187.621 31.1955C188.196 31.8468 188.904 32.3669 189.698 32.7206C190.491 33.0744 191.352 33.2535 192.221 33.2458C193.327 33.2806 194.425 33.0425 195.418 32.5525C196.363 32.0375 197.236 31.4013 198.017 30.66L201.105 33.7813C200.56 34.3732 199.97 34.9225 199.341 35.4242C198.722 35.913 198.051 36.3307 197.34 36.6695C196.581 37.0264 195.783 37.2901 194.961 37.4547C194.011 37.6451 193.045 37.7376 192.076 37.7307Z" fill="white"/>
<path d="M206.836 15.2812H223.438V19.5986H211.61V24.0737H222.026V28.3911H211.626V33.0239H223.603V37.3413H206.846L206.836 15.2812Z" fill="white"/>
</svg>
