<svg width="188" height="52" viewBox="0 0 188 52" fill="none" xmlns="http://www.w3.org/2000/svg">
<path d="M172.153 17.25C172.328 17.25 172.503 17.25 172.678 17.425C172.854 17.6 172.854 17.775 172.854 17.95V21.8C172.854 21.975 172.854 22.15 172.678 22.325C172.503 22.5 172.328 22.5 172.153 22.5H168.826V37.9C168.826 38.075 168.826 38.25 168.651 38.425C168.476 38.6 168.301 38.6 168.126 38.6H163.048C162.873 38.6 162.698 38.6 162.523 38.425C162.348 38.25 162.348 38.075 162.348 37.9V22.325H159.021C158.846 22.325 158.67 22.325 158.495 22.15C158.32 21.975 158.32 21.8 158.32 21.625V17.775C158.32 17.6 158.32 17.425 158.495 17.25C158.67 17.25 158.846 17.25 159.021 17.25H162.348V11.825C162.348 11.65 162.348 11.475 162.523 11.3C162.698 11.125 162.873 11.125 163.048 11.125H168.126C168.301 11.125 168.476 11.125 168.651 11.3C168.826 11.475 168.826 11.65 168.826 11.825V17.25H172.153Z" fill="white"/>
<path d="M157.62 27.575C157.62 28.45 157.445 29.15 157.27 29.675C157.095 30.025 156.744 30.2 156.044 30.2H143.437C143.787 31.425 144.312 32.3 145.188 32.825C146.063 33.35 147.289 33.7 148.69 33.7C149.39 33.7 150.091 33.7 150.616 33.525C151.316 33.35 152.017 33 152.717 32.475C152.892 32.3 153.067 32.3 153.242 32.3C153.417 32.3 153.593 32.3 153.768 32.475L156.044 34.575C156.219 34.75 156.219 34.75 156.219 34.925C156.219 35.1 156.219 35.275 156.044 35.45C154.993 36.5 153.943 37.2 152.542 37.9C151.316 38.425 149.915 38.775 148.34 38.775C146.238 38.775 144.312 38.25 142.561 37.375C140.985 36.325 139.585 35.1 138.709 33.35C137.834 31.775 137.308 29.85 137.308 27.925C137.308 26 137.834 24.075 138.709 22.5C139.585 20.925 140.985 19.525 142.561 18.65C144.137 17.6 145.888 17.25 147.989 17.25C149.915 17.25 151.666 17.775 153.067 18.65C154.643 19.525 155.694 20.925 156.569 22.5C157.27 23.9 157.62 25.65 157.62 27.575ZM147.814 22.5C146.764 22.5 145.713 22.85 145.013 23.375C144.137 23.9 143.787 24.775 143.437 26H152.017C151.842 24.775 151.316 23.9 150.616 23.375C149.74 22.85 148.865 22.5 147.814 22.5Z" fill="white"/>
<path d="M134.507 17.6C134.682 17.6 134.857 17.6 135.032 17.775C135.207 17.95 135.207 18.125 135.207 18.3V38.425C135.207 40.525 134.682 42.275 133.456 43.5C132.406 44.9 131.005 45.775 129.254 46.3C127.503 46.65 125.927 47 124.001 47C122.25 47 120.499 46.825 118.923 46.3C117.347 45.775 115.946 45.075 114.896 44.375C114.721 44.2 114.721 44.025 114.721 43.85C114.721 43.675 114.721 43.5 114.721 43.5L116.296 40.525C116.472 40.35 116.647 40.175 116.822 40.175C116.997 40.175 116.997 40.175 117.172 40.175C118.047 40.7 119.098 41.225 120.149 41.4C121.199 41.575 122.25 41.75 123.651 41.75C125.051 41.75 126.452 41.4 127.503 40.875C128.728 40.35 129.254 39.3 129.254 37.9V35.975C127.678 37.9 125.577 38.775 123.125 38.775C121.199 38.775 119.448 38.25 118.047 37.375C116.472 36.325 115.246 35.1 114.37 33.35C113.495 31.775 113.145 29.85 113.145 27.925C113.145 26 113.495 24.25 114.37 22.5C115.421 20.75 116.472 19.525 118.047 18.475C119.623 17.425 121.199 17.075 123.125 17.075C125.402 17.075 127.328 17.95 129.079 19.875L129.254 18.125C129.254 17.775 129.604 17.425 129.954 17.425H134.507V17.6ZM124.001 32.825C125.226 32.825 126.452 32.3 127.328 31.25C128.203 30.2 128.728 29.15 128.728 27.75C128.728 26.35 128.203 25.3 127.328 24.25C126.452 23.2 125.402 22.675 124.001 22.675C122.6 22.675 121.549 23.2 120.674 24.075C119.798 24.95 119.273 26.175 119.273 27.575C119.273 28.975 119.623 30.2 120.499 31.075C121.549 32.3 122.6 32.825 124.001 32.825Z" fill="white"/>
<path d="M111.043 17.25C111.219 17.25 111.394 17.25 111.569 17.425C111.744 17.6 111.744 17.775 111.744 17.95V21.8C111.744 21.975 111.744 22.15 111.569 22.325C111.394 22.5 111.219 22.5 111.043 22.5H107.717V37.9C107.717 38.075 107.717 38.25 107.541 38.425C107.366 38.6 107.191 38.6 107.016 38.6H101.938C101.763 38.6 101.588 38.6 101.413 38.425C101.413 38.25 101.413 38.075 101.413 37.9V22.325H97.911C97.7359 22.325 97.5608 22.325 97.3857 22.15C97.2106 21.975 97.2106 21.8 97.2106 21.625V17.775C97.2106 17.6 97.2106 17.425 97.3857 17.25C97.5608 17.25 97.7359 17.25 97.911 17.25H101.413V11.825C101.413 11.65 101.413 11.475 101.588 11.3C101.763 11.125 101.938 11.125 102.113 11.125H107.191C107.366 11.125 107.541 11.125 107.717 11.3C107.892 11.475 107.892 11.65 107.892 11.825V17.25H111.043Z" fill="white"/>
<path d="M91.7825 15.5C90.907 15.5 90.0315 15.15 89.3311 14.45C88.8058 13.75 88.4556 13.05 88.4556 12C88.4556 10.95 88.8058 10.25 89.5062 9.55C90.0315 8.85 90.907 8.5 91.7825 8.5C92.658 8.5 93.5335 8.85 94.2339 9.55C94.9343 10.25 95.2845 11.125 95.2845 12C95.2845 12.875 94.9343 13.75 94.2339 14.45C93.5335 15.15 92.8331 15.5 91.7825 15.5ZM88.6307 17.775C88.6307 17.6 88.6307 17.425 88.8058 17.25C88.9809 17.25 89.156 17.25 89.3311 17.25H94.409C94.5841 17.25 94.7592 17.25 94.9343 17.425C95.1094 17.6 95.1094 17.775 95.1094 17.95V37.9C95.1094 38.075 95.1094 38.25 94.9343 38.425C94.7592 38.6 94.5841 38.6 94.409 38.6H89.3311C89.156 38.6 88.9809 38.6 88.8058 38.425C88.6307 38.25 88.6307 38.075 88.6307 37.9V17.775Z" fill="white"/>
<path d="M80.5761 22.5C82.152 22.85 83.5528 23.725 84.6034 25.125C85.8291 26.525 86.3544 28.1 86.3544 29.85C86.3544 32.65 85.4789 34.925 83.5528 36.325C81.8018 37.725 79.0002 38.425 75.3231 38.425H64.9923C64.8172 38.425 64.6421 38.425 64.467 38.25C64.2919 38.075 64.2919 37.9 64.2919 37.725V9.2C64.2919 9.025 64.2919 8.85 64.467 8.675C64.467 8.675 64.6421 8.5 64.8172 8.5H75.148C77.0741 8.5 78.65 8.85 79.8757 9.55C81.2765 10.25 82.3271 11.125 82.8524 12.35C83.5528 13.575 83.903 14.8 83.903 16.375C83.903 17.775 83.5528 19.175 82.8524 20.225C82.3271 21.275 81.4516 22.15 80.5761 22.5ZM77.9496 17.25C77.9496 15.5 76.899 14.45 74.6227 14.45H70.7706V20.225H74.6227C75.6733 20.225 76.5488 20.05 77.0741 19.525C77.5994 19 77.9496 18.125 77.9496 17.25ZM75.4982 32.65C76.7239 32.65 77.7745 32.3 78.65 31.775C79.3504 31.25 79.8757 30.2 79.8757 29.15C79.8757 27.925 79.5255 27.05 78.65 26.525C77.9496 26 76.899 25.65 75.4982 25.65H70.7706V32.65H75.4982Z" fill="white"/>
<path d="M28.0463 5.875C28.5716 5.35 29.272 5 29.9724 5H35.0503C35.7507 5 36.1009 5.7 35.5756 6.225L25.5949 17.075H31.1981L36.8013 23.025H25.5949L36.8013 35.1H29.9724C29.272 35.1 28.3965 34.75 27.8712 34.225L16.4897 21.975C15.6142 20.925 15.6142 19.175 16.6648 18.125L28.0463 5.875Z" fill="white"/>
<path d="M43.6302 46.125C43.1049 46.65 42.4045 47 41.529 47H36.4511C35.7507 47 35.4005 46.3 35.9258 45.775L46.0815 34.925H40.4784L34.8752 28.975H46.0815L34.8752 16.9H41.7041C42.4045 16.9 43.28 17.25 43.8053 17.775L55.1867 30.025C56.2373 31.075 56.2373 32.825 55.1867 33.875L43.6302 46.125Z" fill="white"/>
</svg>
