<svg width="207" height="52" viewBox="0 0 207 52" fill="none" xmlns="http://www.w3.org/2000/svg">
<path d="M85.2834 15.6189C84.8778 15.2135 84.4409 14.9016 83.9416 14.6209C83.692 14.4962 83.4423 14.3715 83.1927 14.3091L83.3487 14.2155C83.6608 14.0596 83.9728 13.8413 84.2225 13.5919C84.6593 13.1553 84.9714 12.5939 85.1586 12.0014C85.3771 11.3777 85.4707 10.6917 85.4707 10.0368C85.4707 9.38189 85.3771 8.7582 85.1586 8.1345C84.9714 7.60436 84.6281 7.1054 84.2225 6.7C83.3175 5.82682 81.7884 5.23431 79.7601 5.23431H69.0566V24.2571H80.5402C81.4452 24.2882 82.3189 24.1323 83.1615 23.8205C83.848 23.571 84.5033 23.1656 85.0338 22.6355C85.4707 22.1677 85.8139 21.6375 86.0324 21.045C86.282 20.3901 86.3756 19.7041 86.3756 18.9868C86.3756 18.3319 86.282 17.7082 86.126 17.0845C85.9388 16.5232 85.6579 16.0243 85.2834 15.6189ZM81.0707 20.0159C80.8523 20.1718 80.6338 20.2654 80.3842 20.3278C80.0409 20.4213 79.6977 20.4525 79.3544 20.4525H73.519V16.6168H79.4168C80.0097 16.5856 80.5714 16.7727 81.0395 17.0845C81.2579 17.2405 81.414 17.49 81.4764 17.7394C81.57 18.0201 81.6324 18.3319 81.6012 18.6438C81.6012 18.9245 81.57 19.2051 81.4764 19.4546C81.3828 19.6729 81.2579 19.86 81.0707 20.0159ZM80.5714 10.0368C80.665 10.3174 80.7274 10.6293 80.7274 10.91C80.7274 11.253 80.665 11.5648 80.5714 11.9079C80.4778 12.1573 80.353 12.3756 80.1658 12.5627C80.0097 12.7187 79.8225 12.8122 79.6353 12.8746C79.4168 12.937 79.1984 12.9682 78.9487 12.9682H73.519V9.00767H78.5743C78.8863 9.00767 79.2296 9.03886 79.5416 9.10123C79.7913 9.1636 80.0097 9.25715 80.197 9.41308C80.353 9.569 80.4778 9.7873 80.5714 10.0368ZM89.9018 24.2259H94.5202V5.20312H89.9018V24.2259ZM97.3599 9.13241H103.383V24.2259H108.001V9.13241H114.055V5.20312H97.3599V9.13241ZM115.709 9.13241H121.731V24.2259H126.35V9.13241H132.404V5.20312H115.709V9.13241ZM150.752 14.3715C151.22 13.5919 151.47 12.438 151.47 11.0035C151.47 10.3174 151.408 9.63137 151.252 8.97649C151.127 8.41516 150.908 7.9162 150.596 7.41725C150.191 6.69999 149.535 6.13867 148.786 5.79564C147.85 5.39023 146.82 5.20312 145.791 5.23431H135.212V24.2571H139.706V17.0534H144.168L147.788 24.2571H152.905L148.537 16.149C149.504 15.8683 150.284 15.2135 150.752 14.3715ZM146.758 12.6563C146.696 12.7499 146.633 12.8434 146.54 12.9058C146.384 13.0305 146.165 13.1241 145.978 13.1864C145.697 13.2488 145.416 13.28 145.135 13.28H139.768V9.13241H144.917C145.354 9.13241 145.759 9.19479 146.165 9.35071C146.321 9.41308 146.446 9.50663 146.54 9.60018C146.633 9.69374 146.727 9.81848 146.789 9.94322C146.82 10.0056 146.852 10.0991 146.852 10.1615C146.914 10.5357 146.976 10.91 146.976 11.2842C146.976 11.5336 146.945 11.7519 146.914 12.0014C146.883 12.2509 146.82 12.4692 146.758 12.6563Z" fill="white"/>
<path d="M160.269 16.7416H170.067V12.7187H160.269V9.22604H170.442V5.23438H155.807V24.2571H170.567V20.2967H160.269V16.7416Z" fill="white"/>
<path d="M191.22 30.1172H69.1445V46.8011H191.22V30.1172Z" fill="white"/>
<path d="M113.176 43.0897L113.082 42.2165C112.583 42.7778 111.865 43.2144 110.367 43.2144C108.9 43.2144 107.746 42.6843 107.059 41.8423C106.56 41.2186 106.186 40.0336 106.186 38.4743C106.186 37.1334 106.342 36.1355 107.028 35.1999C107.621 34.3891 108.744 33.7031 110.617 33.7031C112.583 33.7031 113.737 34.3579 114.268 35.3247C114.549 35.8548 114.705 36.4161 114.705 37.0086H112.739C112.707 36.6032 112.551 36.2602 112.271 35.9796C111.834 35.5741 111.241 35.387 110.648 35.4182C109.837 35.4182 109.244 35.6365 108.838 36.0731C108.432 36.5097 108.214 37.2893 108.214 38.5367C108.214 39.8153 108.401 40.4702 108.776 40.9379C109.088 41.3122 109.774 41.624 110.648 41.624C111.834 41.624 112.676 41.0315 112.832 40.2519V39.4099H110.149V37.7571H114.705V40.6261C114.705 41.7487 114.705 43.0897 114.705 43.1209L113.176 43.0897ZM116.14 43.0897V33.8278H118.168V41.3745H122.818V43.0897H116.14ZM131.15 35.1687C131.68 35.886 131.93 36.9463 131.93 38.3808C131.93 39.8777 131.649 40.9379 131.119 41.7176C130.463 42.6843 129.246 43.1833 127.436 43.1833C125.627 43.1833 124.441 42.6843 123.754 41.7176C123.192 40.9379 122.912 39.8153 122.912 38.3808C122.912 37.0087 123.161 35.9484 123.723 35.2311C124.409 34.2644 125.564 33.6719 127.436 33.6719C129.246 33.6719 130.463 34.202 131.15 35.1687ZM129.278 40.8756C129.714 40.439 129.902 39.4723 129.902 38.4432C129.902 37.4141 129.714 36.5097 129.34 36.0731C128.965 35.6677 128.466 35.3559 127.436 35.3559C126.407 35.3559 125.97 35.6365 125.564 36.0731C125.19 36.4785 125.002 37.4452 125.002 38.4432C125.002 39.4723 125.221 40.439 125.689 40.9068C126.063 41.281 126.563 41.5304 127.468 41.5304C128.404 41.5616 128.903 41.2498 129.278 40.8756ZM138.826 43.0897H133.209V33.8278H138.452C139.45 33.8278 140.168 34.1085 140.605 34.5139C141.011 34.9504 141.229 35.5118 141.198 36.1043C141.229 36.728 141.011 37.3205 140.605 37.7883C140.355 38.0066 140.043 38.1937 139.7 38.256C140.231 38.3184 140.73 38.5991 141.136 38.9733C141.479 39.3163 141.635 39.9088 141.635 40.5637C141.666 41.1874 141.416 41.8111 141.011 42.3101C140.511 42.7778 139.825 43.0897 138.826 43.0897ZM138.733 35.6989C138.483 35.5118 138.171 35.4182 137.828 35.4494H135.175V37.6947H138.015C138.265 37.6947 138.514 37.6324 138.702 37.4452C138.92 37.1958 139.045 36.8839 139.045 36.5409C139.076 36.229 138.951 35.9172 138.733 35.6989ZM139.482 40.4078C139.513 40.0648 139.388 39.7529 139.138 39.5346C138.889 39.3475 138.577 39.254 138.233 39.254H135.175V41.4369H138.233C138.577 41.4681 138.889 41.3745 139.17 41.1874C139.388 41.0003 139.513 40.7197 139.482 40.4078ZM144.069 43.0897H141.978L145.567 33.8278H148.126L151.527 43.0897H149.436L148.656 40.9068H144.911L144.069 43.0897ZM147.065 36.385L146.846 35.6365L146.628 36.4161L145.567 39.254H148.063L147.065 36.385ZM152.432 43.0897V33.8278H154.46V41.3745H159.11V43.0897H152.432Z" fill="#1F2035"/>
<path d="M57.3195 34.7352V5.23438H27.7992V13.9661H33.1977V10.6294H51.9521V29.3714H45.2742V17.2717H15.7539V46.7726H45.2742V38.0408H39.8757V41.3776H21.1212V22.6355H27.7992V34.7352H57.3195ZM39.8445 29.3403H33.1665V22.6667H39.8445V29.3403Z" fill="white"/>
<path d="M184.295 14.3091L182.267 11.4401L178.086 5.20312H172.749L179.334 14.6209L172.344 24.2259H177.555L177.649 24.07L181.799 18.1137L185.918 24.2259H191.254L184.295 14.3091Z" fill="white"/>
<path d="M185.324 8.50878H187.977V11.0971H191.253V5.23438H185.387V8.50878H185.324Z" fill="white"/>
</svg>
