<svg width="149" height="52" viewBox="0 0 149 52" fill="none" xmlns="http://www.w3.org/2000/svg">
<path d="M99.1914 36.5663V6.5H105.235V36.5663H99.1914Z" fill="white"/>
<path d="M28.7588 45.496H15.8027V15.4297H28.2384C34.282 15.4297 37.8028 18.7245 37.8028 23.8752C37.8028 27.2104 35.5408 29.3661 33.9754 30.0843C35.8447 30.9275 38.2358 32.8277 38.2358 36.8407C38.2358 42.4553 34.282 45.496 28.7588 45.496ZM27.7596 20.6664H21.8464V27.5923H27.7583C30.3228 27.5923 31.7578 26.1991 31.7578 24.128C31.7578 22.061 30.3242 20.6664 27.7596 20.6664ZM28.1496 32.8708H21.8477V40.2619H28.1523C30.8917 40.2619 32.1935 38.5728 32.1935 36.5448C32.1935 34.5182 30.889 32.8708 28.1523 32.8708H28.1496ZM56.6694 33.1666V45.496H50.6687V33.1666L41.3639 15.4297H47.9293L53.7121 27.5493L59.4074 15.4297H65.9715L56.6694 33.1666ZM83.106 45.496H70.1499V15.4297H82.5842C88.6278 15.4297 92.1499 18.7245 92.1499 23.8752C92.1499 27.2104 89.8879 29.3661 88.3226 30.0843C90.1919 30.9275 92.583 32.8277 92.583 36.8407C92.583 42.4553 88.6292 45.496 83.106 45.496ZM82.1068 20.6664H76.1936V27.5923H82.1068C84.6714 27.5923 86.1063 26.1991 86.1063 24.128C86.1063 22.061 84.6714 20.6664 82.1068 20.6664ZM82.4968 32.8708H76.1922V40.2619H82.4968C85.2375 40.2619 86.5393 38.5728 86.5393 36.5448C86.5393 34.5182 85.2375 32.8708 82.4968 32.8708ZM124.715 20.6678V45.4987H118.671V20.6664H110.586V15.4297H132.803V20.6664L124.715 20.6678Z" fill="white"/>
</svg>
