<svg width="117" height="52" viewBox="0 0 117 52" fill="none" xmlns="http://www.w3.org/2000/svg">
<path d="M73.1065 12.0638L61.8874 43.4082L61.8173 43.6003L59.7556 39.3334L55.4521 41.3557L66.7413 9.8191L71.0448 7.79688L73.1065 12.0638ZM101.199 12.8524L89.9803 44.1969L87.9186 39.9199L83.6151 41.9421L83.8753 41.204L95.0945 9.8191L99.398 7.79688L101.4 12.0638L101.199 12.8524ZM77.1798 40.0008L83.7852 21.548L79.4717 23.5702L77.4701 19.2932L70.7946 37.6954L72.8463 41.9724L77.1798 40.0008ZM41.4307 21.8008H21.6946L25.0573 24.9858L21.6946 28.2719H41.4107L44.7634 24.9858L41.4307 21.8008ZM18.9624 35.4305H50.8684L47.5156 38.6964L50.8684 41.9522H18.9624L15.5996 38.6964L18.9624 35.4305ZM28.7503 8.05976H60.6363L57.2936 11.3257L60.6363 14.5814H28.7503L25.3876 11.3257L28.7503 8.05976Z" fill="white"/>
</svg>
