<svg width="182" height="52" viewBox="0 0 182 52" fill="none" xmlns="http://www.w3.org/2000/svg">
<path d="M49.6554 21.187L53.1302 22.9705L56.6265 21.187V41.2778H49.6554V21.187ZM49.1191 14.397C49.1907 13.401 49.6525 12.4737 50.404 11.8175C51.1554 11.1613 52.1355 10.8295 53.1302 10.8945C53.6352 10.815 54.1514 10.8461 54.6434 10.9856C55.1353 11.125 55.5912 11.3696 55.9797 11.7024C56.3682 12.0353 56.6802 12.4485 56.8941 12.9136C57.108 13.3788 57.2187 13.8849 57.2187 14.397C57.2187 14.9091 57.108 15.4152 56.8941 15.8803C56.6802 16.3455 56.3682 16.7587 55.9797 17.0915C55.5912 17.4244 55.1353 17.669 54.6434 17.8084C54.1514 17.9479 53.6352 17.9789 53.1302 17.8994C52.6415 17.9376 52.15 17.8789 51.6839 17.7268C51.2178 17.5747 50.7862 17.3321 50.4138 17.0128C50.0413 16.6935 49.7352 16.3039 49.5131 15.8661C49.291 15.4284 49.1571 14.9511 49.1191 14.4615V14.397Z" fill="white"/>
<path d="M33.2902 10.5938V22.3474H23.5951V10.5938H16.002V41.2778H23.5951V29.4812H33.2902V41.2778H40.8833V10.5938H33.2902Z" fill="white"/>
<path d="M72.6521 41.2796H65.6381V26.0235H62.9141V19.4268H65.6381V12.0781H72.6521V19.4268H75.3762V26.0235H72.6521V41.2796Z" fill="white"/>
<path d="M90.0931 34.2299H96.292C98.7158 34.2299 99.4665 32.7473 99.4665 31.4795C99.4665 30.2118 98.6729 28.7721 96.292 28.7721H90.0931V34.2299ZM90.0931 22.3904H95.7558C96.0657 22.436 96.3815 22.4199 96.6852 22.343C96.9889 22.2661 97.2744 22.1299 97.5255 21.9423C97.7766 21.7547 97.9882 21.5192 98.1483 21.2495C98.3084 20.9798 98.4137 20.6811 98.4584 20.3705C98.4691 20.2562 98.4691 20.1411 98.4584 20.0267C98.4584 19.2102 98.0079 17.6631 95.7343 17.6631H90.0931V22.3904ZM94.9192 10.5938C104.164 10.5938 105.644 16.0945 105.644 18.8879C105.717 20.2259 105.388 21.5551 104.7 22.7042C104.012 23.8532 102.996 24.7692 101.783 25.3341C103.245 25.7738 104.515 26.6978 105.384 27.9549C106.253 29.212 106.67 30.7275 106.566 32.2531C106.566 37.0663 103.799 41.2134 94.6404 41.2134H82.5V10.5938H94.9192Z" fill="white"/>
<path d="M126.145 41.2778H118.551V17.6416H110.551V10.5938H134.145V17.5772H126.145V41.2778Z" fill="white"/>
<path d="M165.762 15.4482L160.85 19.8961C158.95 18.222 156.495 17.318 153.965 17.3606C152.898 17.3349 151.837 17.5204 150.842 17.9063C149.847 18.2923 148.938 18.8711 148.167 19.6097C147.396 20.3483 146.778 21.2321 146.348 22.2104C145.919 23.1887 145.686 24.2424 145.664 25.3109C145.642 25.5253 145.642 25.7412 145.664 25.9556C145.6 27.0209 145.746 28.0884 146.095 29.097C146.443 30.1056 146.986 31.0357 147.693 31.8339C148.4 32.6321 149.258 33.2829 150.216 33.749C151.174 34.2152 152.215 34.4875 153.278 34.5505H153.965C156.487 34.6172 158.944 33.7357 160.85 32.0795L165.762 36.5274C164.243 38.1315 162.413 39.4085 160.385 40.2804C158.357 41.1523 156.172 41.6008 153.965 41.5984C149.835 41.5984 145.874 39.9549 142.954 37.0293C140.033 34.1038 138.393 30.1359 138.393 25.9985C138.393 21.8612 140.033 17.8933 142.954 14.9678C145.874 12.0422 149.835 10.3987 153.965 10.3987C156.171 10.3872 158.357 10.8294 160.386 11.698C162.415 12.5665 164.245 13.8429 165.762 15.4482Z" fill="white"/>
</svg>
