<svg width="171" height="52" viewBox="0 0 171 52" fill="none" xmlns="http://www.w3.org/2000/svg">
<path d="M67.0682 15.5684V27.306H55.4069V17.0841C55.4069 16.244 54.7254 15.5625 53.8853 15.5625H49.9375V43.6612C49.9375 44.5013 50.619 45.1828 51.4591 45.1828H55.4069V32.0763H67.074V43.6554C67.0623 44.4954 67.732 45.1887 68.5721 45.2004H68.5956H72.5434V17.0841C72.5434 16.244 71.8619 15.5625 71.0218 15.5625H67.0682V15.5684ZM90.2263 22.9118V36.9934C90.238 38.2741 89.5683 39.4667 88.4639 40.1247C85.3738 41.9106 82.172 39.6723 82.172 36.735V24.4333C82.172 23.5932 81.4906 22.9118 80.6505 22.9118H76.7027V37.2402C76.7144 41.8577 80.4507 45.594 85.0683 45.6175H87.3124C91.9358 45.6058 95.6839 41.8577 95.6956 37.2343V24.4333C95.6956 23.5932 95.0142 22.9118 94.1741 22.9118H90.2263Z" fill="white"/>
<path d="M149.957 45.2064H153.905V25.2559C153.905 24.4158 153.223 23.7344 152.383 23.7344H148.436V43.6731C148.43 44.5132 149.105 45.2006 149.945 45.2064H149.957Z" fill="white"/>
<path d="M153.986 19.7433C154.631 18.1875 153.892 16.4039 152.336 15.7595C150.78 15.1151 148.997 15.8539 148.352 17.4096C147.708 18.9654 148.447 20.749 150.002 21.3934C151.558 22.0378 153.342 21.2991 153.986 19.7433Z" fill="white"/>
<path d="M109.806 22.9062C104.079 22.9062 99.3906 27.0009 99.3906 32.7288V35.8247C99.3906 41.5526 104.079 45.6238 109.806 45.6238C115.534 45.6238 120.222 41.5526 120.222 35.8247V32.7288C120.228 27.0009 115.54 22.9062 109.806 22.9062ZM114.729 36.1948C114.729 38.9031 112.515 40.7066 109.801 40.7066C107.086 40.7066 104.878 38.9031 104.878 36.1948V32.3293C104.878 29.621 107.092 27.8175 109.801 27.8175C112.509 27.8175 114.729 29.621 114.729 32.3293V36.1948Z" fill="white"/>
<path d="M134.33 22.9019C132.615 22.8901 130.923 23.2779 129.378 24.024V17.1153C129.378 16.2752 128.696 15.5938 127.856 15.5938H123.908V35.8204C123.908 41.5482 128.596 45.6194 134.324 45.6194C140.052 45.6194 144.74 41.5482 144.74 35.8204V32.7244C144.746 26.9966 140.07 22.9019 134.33 22.9019ZM139.259 36.1905C139.259 38.8987 137.044 40.7023 134.33 40.7023C131.622 40.7023 129.407 38.8987 129.407 36.1905V32.3249C129.407 29.6167 131.622 27.8131 134.33 27.8131C137.038 27.8131 139.259 29.6167 139.259 32.3249V36.1905Z" fill="white"/>
<path d="M33.4057 17.9987C33.4057 12.03 30.4977 6.8896 28.283 5.22119C28.283 5.22119 28.1126 5.12719 28.1302 5.36805C27.9481 16.9001 22.0558 20.0255 18.8188 24.2317C11.3462 33.9485 18.2901 44.5994 25.375 46.5674C29.3228 47.6718 24.4585 44.617 23.8299 38.1724C23.0603 30.3943 33.4057 24.4491 33.4057 17.9987Z" fill="white"/>
<path d="M36.8024 21.9263C36.7554 21.897 36.6908 21.8735 36.6497 21.9498C36.5263 23.4009 35.0459 26.5027 33.1659 29.3579C26.7919 39.0276 30.4225 43.6921 32.4669 46.2006C33.6536 47.6517 32.4669 46.2006 35.4277 44.7143C39.0877 42.4937 41.461 38.6516 41.8135 34.3866C42.3951 27.5132 38.2711 23.1835 36.8024 21.9263Z" fill="white"/>
</svg>
