<svg width="212" height="52" viewBox="0 0 212 52" fill="none" xmlns="http://www.w3.org/2000/svg">
<path d="M157.796 26.0084C157.796 24.946 157.796 23.9466 157.761 23.0237C157.738 22.153 157.652 21.2851 157.503 20.4269C157.364 19.6431 157.12 18.882 156.775 18.1644C156.412 17.4246 155.926 16.7515 155.338 16.1734C154.505 15.3195 153.513 14.636 152.418 14.1613C151.234 13.6816 149.966 13.4438 148.689 13.4619C147.406 13.4453 146.133 13.683 144.943 14.1613C143.842 14.6296 142.844 15.31 142.006 16.1638C141.42 16.7416 140.936 17.4149 140.575 18.1549C140.234 18.8726 139.993 19.6339 139.859 20.4173C139.714 21.2758 139.631 22.1437 139.61 23.0141C139.587 23.9371 139.576 24.9364 139.582 25.9988C139.587 27.0613 139.582 28.053 139.61 28.9816C139.631 29.8521 139.714 30.7199 139.859 31.5784C139.993 32.3619 140.234 33.1232 140.575 33.8409C140.937 34.58 141.421 35.2531 142.006 35.8319C142.843 36.6864 143.841 37.3659 144.943 37.8307C146.132 38.312 147.406 38.5511 148.689 38.5339C149.966 38.5527 151.235 38.3135 152.418 37.8307C153.513 37.3622 154.505 36.6831 155.338 35.8319C155.925 35.2527 156.41 34.5798 156.775 33.8409C157.12 33.1233 157.364 32.3622 157.503 31.5784C157.65 30.7226 157.735 29.8573 157.757 28.9893C157.786 28.0606 157.799 27.067 157.792 26.0065L157.796 26.0084ZM152.98 26.0084C152.98 27.1855 152.963 28.1657 152.923 28.9453C152.9 29.5857 152.837 30.224 152.732 30.8562C152.66 31.2773 152.532 31.6868 152.35 32.0734C152.202 32.3849 152.009 32.6728 151.776 32.9275C151.418 33.3381 150.973 33.6644 150.473 33.8829C149.911 34.1234 149.306 34.2457 148.694 34.2422C148.08 34.2448 147.471 34.1226 146.906 33.8829C146.394 33.6684 145.937 33.3419 145.568 32.9275C145.334 32.6739 145.141 32.3858 144.995 32.0734C144.818 31.6864 144.696 31.2768 144.632 30.8562C144.53 30.2236 144.466 29.5855 144.441 28.9453C144.406 28.1657 144.389 27.1867 144.389 26.0084C144.389 24.8313 144.406 23.8492 144.441 23.0695C144.466 22.4293 144.53 21.7912 144.632 21.1587C144.696 20.7381 144.818 20.3284 144.995 19.9415C145.141 19.6293 145.335 19.3413 145.568 19.0874C145.938 18.6735 146.394 18.3471 146.906 18.132C147.471 17.8895 148.08 17.7672 148.694 17.7727C149.306 17.7664 149.912 17.8888 150.473 18.132C150.972 18.3512 151.417 18.6773 151.776 19.0874C152.008 19.3424 152.202 19.6302 152.35 19.9415C152.532 20.328 152.66 20.7375 152.732 21.1587C152.836 21.7909 152.9 22.4292 152.923 23.0695C152.965 23.8472 152.98 24.8294 152.98 26.0084Z" fill="white"/>
<path d="M196.166 14.102C196.164 13.8696 195.976 13.6818 195.744 13.6797H191.771C191.538 13.6807 191.35 13.8692 191.349 14.102V28.7771L181.661 13.7982C181.596 13.6969 181.539 13.6797 181.395 13.6797H177.711C177.479 13.6828 177.292 13.87 177.289 14.102V37.9147C177.292 38.1463 177.48 38.333 177.711 38.3351H181.682C181.914 38.334 182.101 38.1464 182.102 37.9147V23.2013L191.792 38.2147C191.859 38.316 191.913 38.3332 192.058 38.3332H195.74C195.972 38.3321 196.16 38.1448 196.162 37.9128L196.166 14.102Z" fill="white"/>
<path d="M169.536 14.102C169.535 13.8692 169.347 13.6807 169.114 13.6797H165.145C164.912 13.6807 164.724 13.8692 164.723 14.102V37.9128C164.724 38.1456 164.912 38.334 165.145 38.3351H169.114C169.347 38.334 169.535 38.1456 169.536 37.9128V14.102Z" fill="white"/>
<path d="M122.026 26.0108C122.026 24.8261 122.04 23.8401 122.074 23.0548C122.098 22.4144 122.161 21.7762 122.265 21.144C122.632 19.0229 124.256 17.7713 126.33 17.7713C127.682 17.7828 128.909 18.2834 129.693 19.4223C130.047 19.954 130.306 20.5438 130.457 21.165C130.469 21.2304 130.528 21.2761 130.595 21.2701H135.266C135.333 21.2701 135.358 21.2242 135.347 21.1592C134.837 18.2682 133.295 15.6713 130.57 14.3854C129.231 13.7653 127.769 13.4551 126.293 13.4777C123.663 13.4777 121.447 14.3784 119.645 16.1796C118.617 17.1819 117.915 18.4712 117.631 19.879C117.356 21.265 117.217 23.3083 117.215 26.0089C117.212 28.7096 117.351 30.7522 117.631 32.1369C117.913 33.5465 118.613 34.8384 119.64 35.8439C121.44 37.6439 123.656 38.5439 126.288 38.5439C127.763 38.5663 129.224 38.2567 130.564 37.6382C133.289 36.3522 134.831 33.7554 135.341 30.8643C135.352 30.7975 135.328 30.7535 135.261 30.7535H130.587C130.52 30.7466 130.46 30.7926 130.449 30.8586C130.298 31.479 130.039 32.0682 129.685 32.5994C128.902 33.7459 127.675 34.2408 126.322 34.2503C124.249 34.2503 122.624 33.0006 122.258 30.8796C122.154 30.2473 122.09 29.6091 122.067 28.9688C122.04 28.1796 122.026 27.1917 122.026 26.0108Z" fill="white"/>
<path d="M72.6767 14.102C72.6756 13.8692 72.4871 13.6807 72.2544 13.6797H68.2856C68.0528 13.6807 67.8643 13.8692 67.8633 14.102V37.9147C67.8654 38.1468 68.0535 38.334 68.2856 38.3353H72.2544C72.4864 38.334 72.6746 38.1468 72.6767 37.9147V30.9249L75.862 27.1166L82.4047 38.209C82.455 38.2908 82.5456 38.339 82.6416 38.3353H87.4645C87.6862 38.3353 87.7263 38.1975 87.6155 38.0083L79.0493 23.4861L86.9085 14.058C87.0671 13.8669 87.0002 13.6854 86.7518 13.6854H81.4798C81.4157 13.6816 81.3539 13.7104 81.3155 13.7619L72.6767 24.1224V14.102Z" fill="white"/>
<path d="M101.59 34.2497C99.3564 34.2497 97.331 32.1822 97.331 29.7134V14.102C97.3299 13.8692 97.1415 13.6807 96.9087 13.6797H92.9399C92.7071 13.6807 92.5186 13.8692 92.5176 14.102V29.6523C92.5176 35.0886 96.5838 38.5434 101.59 38.5434C106.597 38.5434 110.663 35.0886 110.663 29.6523V14.102C110.661 13.8696 110.473 13.6818 110.24 13.6797H106.27C106.038 13.6818 105.85 13.8699 105.849 14.102V29.7134C105.849 32.1803 103.822 34.2497 101.59 34.2497Z" fill="white"/>
<path fill-rule="evenodd" clip-rule="evenodd" d="M27.9705 26.0073L40.2915 38.3302L48.0686 30.5532C49.4593 29.301 51.5868 29.3567 52.91 30.6799C54.2332 32.0032 54.2889 34.1307 53.0368 35.5213L42.7737 45.7863C41.3951 47.1421 39.1841 47.1421 37.8056 45.7863L22.9986 30.9755V39.7787C22.9986 41.7215 21.4236 43.2965 19.4807 43.2965C17.5379 43.2965 15.9629 41.7215 15.9629 39.7787V12.2245C15.9629 10.2817 17.5379 8.70671 19.4807 8.70671C21.4236 8.70671 22.9986 10.2817 22.9986 12.2245V21.0277L37.8036 6.22072C39.1818 4.86393 41.3936 4.86393 42.7718 6.22072L53.0425 16.4838C54.2946 17.8744 54.2389 20.0019 52.9157 21.3252C51.5925 22.6484 49.465 22.7041 48.0743 21.4519L40.2973 13.6749L27.9705 26.0073ZM40.2973 22.4857C38.8727 22.4849 37.588 23.3424 37.0423 24.6583C36.4966 25.9742 36.7975 27.4893 37.8045 28.4968C38.8115 29.5044 40.3264 29.8061 41.6426 29.2611C42.9588 28.7161 43.817 27.4319 43.817 26.0073C43.8175 25.0733 43.447 24.1774 42.7869 23.5166C42.1268 22.8558 41.2313 22.4843 40.2973 22.4838V22.4857Z" fill="white"/>
</svg>
