<svg width="149" height="52" viewBox="0 0 149 52" fill="none" xmlns="http://www.w3.org/2000/svg">
<path d="M50.6789 9.10157H17.1456C16.9375 9.10157 16.7391 9.18036 16.5927 9.32188C16.5214 9.38958 16.4644 9.47165 16.4253 9.56298C16.3862 9.65431 16.3657 9.75295 16.3652 9.85277V42.1496C16.3652 42.3485 16.447 42.5397 16.5934 42.6805C16.7398 42.8212 16.9382 42.9008 17.1449 42.9008H50.6789C50.8862 42.9008 51.0839 42.8212 51.2311 42.6805C51.3024 42.6128 51.3595 42.5308 51.3988 42.4395C51.438 42.3481 51.4586 42.2495 51.4592 42.1496V9.85277C51.4592 9.65388 51.3775 9.46264 51.2311 9.32188C51.0807 9.17921 50.8834 9.10049 50.6789 9.10157ZM39.7612 30.8832C39.7612 31.0821 39.6795 31.2733 39.5323 31.4141C39.3824 31.5565 39.1856 31.6352 38.9816 31.6344H28.8428C28.6362 31.6344 28.4378 31.5548 28.2914 31.4141C28.22 31.3464 28.1629 31.2644 28.1236 31.1731C28.0844 31.0817 28.0638 30.9831 28.0632 30.8832V21.1192C28.0632 20.9203 28.145 20.729 28.2914 20.5883C28.4378 20.4468 28.6362 20.368 28.8428 20.368H38.9816C39.1882 20.368 39.3866 20.4468 39.5323 20.5883C39.6039 20.6558 39.6612 20.7378 39.7005 20.8292C39.7399 20.9205 39.7606 21.0192 39.7612 21.1192V30.8832ZM120.882 20.3695H110.743C110.312 20.3695 109.963 20.7061 109.963 21.1207V30.8847C109.963 31.2993 110.312 31.6359 110.743 31.6359H120.881C121.312 31.6359 121.661 31.2993 121.661 30.8847V21.1207C121.661 20.7053 121.312 20.3695 120.881 20.3695H120.882ZM109.186 9.10157H99.0479C98.6168 9.10157 98.2675 9.43816 98.2675 9.85353V19.6175C98.2675 20.0322 98.6168 20.3687 99.0479 20.3687H109.185C109.616 20.3687 109.966 20.0322 109.966 19.6175V9.85353C109.966 9.43816 109.616 9.10234 109.185 9.10234L109.186 9.10157ZM132.586 9.10157H122.447C122.017 9.10157 121.667 9.43816 121.667 9.85353V19.6175C121.667 20.0322 122.017 20.3687 122.448 20.3687H132.585C133.016 20.3687 133.365 20.0322 133.365 19.6175V9.85353C133.365 9.43816 133.016 9.10234 132.585 9.10234L132.586 9.10157ZM109.186 31.6352H99.0479C98.6168 31.6352 98.2675 31.9717 98.2675 32.3863V42.1511C98.2675 42.5657 98.6168 42.9016 99.0479 42.9016H109.185C109.616 42.9016 109.966 42.565 109.966 42.1511V32.3863C109.966 31.9717 109.617 31.6352 109.186 31.6352ZM132.586 31.6352H122.447C122.017 31.6352 121.667 31.9717 121.667 32.3863V42.1511C121.667 42.5657 122.017 42.9016 122.448 42.9016H132.585C133.016 42.9016 133.365 42.565 133.365 42.1511V32.3863C133.365 31.9717 133.016 31.6352 132.585 31.6352H132.586ZM91.6248 9.10157H81.4875C81.0565 9.10157 80.7072 9.43816 80.7072 9.85353V19.6175C80.7072 20.0322 81.0565 20.3687 81.4875 20.3687H91.6248C92.0559 20.3687 92.4052 20.0322 92.4052 19.6175V9.85353C92.4052 9.43816 92.0559 9.10234 91.6248 9.10234V9.10157ZM91.6248 31.6352H81.4875C81.0565 31.6352 80.7072 31.9717 80.7072 32.3863V42.1511C80.7072 42.5657 81.0565 42.9016 81.4875 42.9016H91.6248C92.0559 42.9016 92.4052 42.565 92.4052 42.1511V32.3863C92.4052 31.9717 92.0559 31.6352 91.6248 31.6352ZM80.7042 21.1108C80.7042 20.9119 80.621 20.7206 80.4753 20.5791C80.325 20.4368 80.128 20.3584 79.9238 20.3596H69.0055V9.85277C69.0055 9.65388 68.9237 9.46264 68.7773 9.32188C68.6272 9.17933 68.4301 9.10061 68.2258 9.10157H58.0878C57.8805 9.10157 57.682 9.18036 57.5356 9.32188C57.4642 9.38951 57.4071 9.47155 57.3679 9.56289C57.3286 9.65422 57.3081 9.7529 57.3075 9.85277V42.1328C57.3075 42.3317 57.3892 42.5229 57.5356 42.6637C57.682 42.8044 57.8805 42.884 58.0878 42.884H68.2251C68.4325 42.884 68.6309 42.8044 68.7773 42.6637C68.9237 42.5229 69.0055 42.3317 69.0055 42.1328V31.626H79.9231C80.1304 31.626 80.3289 31.5464 80.4753 31.4057C80.5467 31.338 80.6037 31.256 80.643 31.1646C80.6822 31.0733 80.7028 30.9746 80.7035 30.8748L80.7042 21.1108Z" fill="white"/>
</svg>
