<svg width="220" height="52" viewBox="0 0 220 52" fill="none" xmlns="http://www.w3.org/2000/svg">
<path d="M73.103 35.2738L73.1286 16.8267H81.144C84.9853 16.8267 87.1108 19.4953 87.1108 22.6302C87.1108 25.7652 84.9341 28.4079 81.144 28.4079H76.3296V35.2997H73.103V35.2738ZM80.6831 19.6766H76.304V25.558H80.6831C82.5013 25.558 83.8073 24.3921 83.8073 22.6302C83.8073 20.8684 82.5013 19.6766 80.6831 19.6766Z" fill="white"/>
<path d="M98.2532 16.5415C103.733 16.5415 107.575 20.5833 107.575 26.1019C107.575 31.6205 103.708 35.6364 98.2275 35.6364C92.7473 35.6364 88.9317 31.5946 88.9317 26.076C88.9317 20.5574 92.7985 16.5156 98.2532 16.5415ZM98.2532 19.4174C94.5655 19.4174 92.2095 22.2674 92.2095 26.076C92.2095 29.8846 94.5399 32.7346 98.2532 32.7346C101.966 32.7346 104.297 29.8587 104.297 26.076C104.297 22.2933 101.915 19.4174 98.2532 19.4174Z" fill="white"/>
<path d="M110.67 35.3258L110.695 16.8786H113.897L113.871 32.4758H121.912V35.3258H110.67Z" fill="white"/>
<path d="M132.488 16.5937C137.968 16.5937 141.81 20.6355 141.81 26.1541C141.81 31.6727 137.943 35.6886 132.462 35.6886C126.982 35.6886 123.141 31.6468 123.141 26.1282C123.141 20.6096 127.033 16.5678 132.488 16.5937ZM132.488 19.4437C128.8 19.4437 126.444 22.2936 126.444 26.1022C126.444 29.9109 128.775 32.7867 132.488 32.7867C136.176 32.7867 138.532 29.9109 138.532 26.1282C138.532 22.3454 136.176 19.4696 132.488 19.4437Z" fill="white"/>
<path d="M157.637 35.3773L148.136 21.9047V35.3514H144.935L144.961 16.9043H148.239L157.535 30.0142V16.9302H160.736L160.71 35.3773H157.637Z" fill="white"/>
<path d="M164.605 35.3769L164.631 16.9298H167.832L167.806 35.3769H164.605Z" fill="white"/>
<path d="M171.695 35.4029L171.721 16.9298H184.218V19.7798L174.922 19.7539V24.547H184.038V27.397H174.922V32.501H184.218V35.351L171.695 35.4029Z" fill="white"/>
<path d="M199.687 35.4293L194.591 28.2007L189.469 35.4293H185.628L192.491 25.9725L186.089 16.9562H189.93L194.616 23.7443L199.303 16.9821H203.169L196.767 25.9466L203.554 35.4552L199.687 35.4293Z" fill="white"/>
<path fill-rule="evenodd" clip-rule="evenodd" d="M35.2788 14.9356L16.3797 3.89844V25.9722L16.3535 37.0101V48.0473L25.8287 42.5547L35.2788 37.0353L25.8293 31.5167L16.3797 25.9722L25.8293 20.4795L26.0568 20.3466L35.2788 14.9356ZM54.2066 26.024V14.9875L54.2322 3.95033L44.7826 9.46893L35.3075 14.9616V37.0353L44.7314 42.5798L54.1809 48.0984V37.0612L54.2066 26.024Z" fill="white"/>
</svg>
